<svg width="683" height="137" viewBox="0 0 683 137" fill="none" xmlns="http://www.w3.org/2000/svg">
<path d="M19.6484 8.22363C19.6484 8.41895 19.5801 8.54102 19.4434 8.58984C19.3066 8.62891 19.1309 8.64844 18.916 8.64844H10.7275V22.916C10.7275 23.0625 10.7227 23.1992 10.7129 23.3262C10.7031 23.4531 10.6738 23.5703 10.625 23.6777C10.5859 23.7754 10.5273 23.8535 10.4492 23.9121C10.3711 23.9707 10.2588 24 10.1123 24C9.8584 24 9.6875 23.8926 9.59961 23.6777C9.52148 23.4531 9.48242 23.1992 9.48242 22.916V8.64844H1.2793C1.06445 8.64844 0.878906 8.62891 0.722656 8.58984C0.576172 8.54102 0.50293 8.41895 0.50293 8.22363C0.50293 8.07715 0.537109 7.96973 0.605469 7.90137C0.673828 7.82324 0.756836 7.76953 0.854492 7.74023C0.961914 7.71094 1.0791 7.69629 1.20605 7.69629C1.34277 7.68652 1.46973 7.68164 1.58691 7.68164H18.5938C18.7402 7.68164 18.877 7.68652 19.0039 7.69629C19.1309 7.69629 19.2383 7.71094 19.3262 7.74023C19.4238 7.76953 19.502 7.82324 19.5605 7.90137C19.6191 7.96973 19.6484 8.07715 19.6484 8.22363ZM37.2559 8.70703C37.2559 8.58008 37.2607 8.45801 37.2705 8.34082C37.29 8.21387 37.3242 8.10156 37.373 8.00391C37.4316 7.90625 37.5049 7.82812 37.5928 7.76953C37.6904 7.71094 37.8125 7.68164 37.959 7.68164C38.0664 7.68164 38.1543 7.71582 38.2227 7.78418C38.291 7.84277 38.3447 7.9209 38.3838 8.01855C38.4326 8.11621 38.4619 8.22852 38.4717 8.35547C38.4912 8.47266 38.501 8.58984 38.501 8.70703V15.123H51.4648V8.70703C51.4648 8.58008 51.4697 8.45801 51.4795 8.34082C51.4893 8.21387 51.5137 8.10156 51.5527 8.00391C51.6016 7.90625 51.665 7.82812 51.7432 7.76953C51.8213 7.71094 51.9336 7.68164 52.0801 7.68164C52.2266 7.68164 52.3389 7.71094 52.417 7.76953C52.5049 7.82812 52.5684 7.90625 52.6074 8.00391C52.6562 8.10156 52.6855 8.21387 52.6953 8.34082C52.7051 8.45801 52.71 8.58008 52.71 8.70703V22.9746C52.71 23.1016 52.7051 23.2285 52.6953 23.3555C52.6855 23.4727 52.6562 23.5801 52.6074 23.6777C52.5684 23.7754 52.5098 23.8535 52.4316 23.9121C52.3535 23.9707 52.2412 24 52.0947 24C51.9482 24 51.8311 23.9707 51.7432 23.9121C51.665 23.8535 51.6016 23.7754 51.5527 23.6777C51.5137 23.5801 51.4893 23.4727 51.4795 23.3555C51.4697 23.2285 51.4648 23.1016 51.4648 22.9746V16.0312H38.501V22.9746C38.501 23.0918 38.4912 23.2139 38.4717 23.3408C38.4521 23.458 38.418 23.5654 38.3691 23.6631C38.3301 23.7607 38.2715 23.8438 38.1934 23.9121C38.125 23.9707 38.0371 24 37.9297 24C37.7832 24 37.6611 23.9707 37.5635 23.9121C37.4756 23.8535 37.4072 23.7754 37.3584 23.6777C37.3193 23.5801 37.29 23.4727 37.2705 23.3555C37.2607 23.2285 37.2559 23.1016 37.2559 22.9746V8.70703ZM87.4414 23.4873C87.4414 23.6338 87.417 23.7412 87.3682 23.8096C87.3193 23.8779 87.251 23.9268 87.1631 23.9561C87.085 23.9854 86.9873 24 86.8701 24C86.7529 24 86.6211 24 86.4746 24H72.793C72.6953 24 72.6221 23.9951 72.5732 23.9854C72.5244 23.9756 72.4854 23.9512 72.4561 23.9121C72.4365 23.873 72.4219 23.8242 72.4121 23.7656C72.4121 23.6973 72.4121 23.6045 72.4121 23.4873V8.37012C72.4121 8.22363 72.4121 8.10645 72.4121 8.01855C72.4219 7.93066 72.4414 7.8623 72.4707 7.81348C72.5 7.76465 72.5488 7.73047 72.6172 7.71094C72.6953 7.69141 72.8076 7.68164 72.9541 7.68164H86.3281C86.4746 7.68164 86.6113 7.68164 86.7383 7.68164C86.8652 7.68164 86.9775 7.69629 87.0752 7.72559C87.1826 7.75488 87.2656 7.80371 87.3242 7.87207C87.3828 7.94043 87.4121 8.04785 87.4121 8.19434C87.4121 8.31152 87.3828 8.4043 87.3242 8.47266C87.2656 8.53125 87.1826 8.5752 87.0752 8.60449C86.9775 8.63379 86.8652 8.64844 86.7383 8.64844C86.6113 8.64844 86.4746 8.64844 86.3281 8.64844H73.6572V15.0645H86.2549C86.4697 15.0645 86.6504 15.0938 86.7969 15.1523C86.9434 15.2109 87.0166 15.3379 87.0166 15.5332C87.0166 15.748 86.9531 15.8896 86.8262 15.958C86.709 16.0264 86.5527 16.0605 86.3574 16.0605H73.6572V23.0332H86.3574C86.5039 23.0332 86.6406 23.0332 86.7676 23.0332C86.8945 23.0332 87.0068 23.0479 87.1045 23.0771C87.2119 23.1064 87.2949 23.1553 87.3535 23.2236C87.4121 23.2822 87.4414 23.3701 87.4414 23.4873ZM137.495 23.3408C139.087 23.3408 140.415 23.1895 141.479 22.8867C142.544 22.5742 143.394 22.1055 144.028 21.4805C144.673 20.8555 145.127 20.0742 145.391 19.1367C145.654 18.1895 145.786 17.0762 145.786 15.7969V8.70703C145.786 8.45313 145.825 8.21875 145.903 8.00391C145.981 7.78906 146.143 7.68164 146.387 7.68164C146.533 7.68164 146.646 7.71094 146.724 7.76953C146.812 7.82812 146.875 7.90625 146.914 8.00391C146.963 8.10156 146.992 8.21387 147.002 8.34082C147.021 8.45801 147.031 8.58008 147.031 8.70703V15.7969C147.031 17.3203 146.831 18.624 146.431 19.708C146.04 20.7822 145.449 21.6611 144.658 22.3447C143.867 23.0283 142.871 23.5264 141.67 23.8389C140.479 24.1514 139.087 24.3076 137.495 24.3076C135.894 24.3076 134.497 24.1514 133.306 23.8389C132.114 23.5264 131.118 23.0283 130.317 22.3447C129.517 21.6611 128.916 20.7822 128.516 19.708C128.125 18.624 127.93 17.3203 127.93 15.7969V8.70703C127.93 8.58008 127.935 8.45801 127.944 8.34082C127.964 8.21387 127.998 8.10156 128.047 8.00391C128.096 7.90625 128.159 7.82812 128.237 7.76953C128.325 7.71094 128.442 7.68164 128.589 7.68164C128.833 7.68164 128.989 7.78906 129.058 8.00391C129.136 8.21875 129.175 8.45313 129.175 8.70703V15.7969C129.175 17.0762 129.307 18.1895 129.57 19.1367C129.844 20.0742 130.298 20.8555 130.933 21.4805C131.577 22.1055 132.432 22.5742 133.496 22.8867C134.561 23.1895 135.894 23.3408 137.495 23.3408ZM182.876 22.125V8.79492C182.876 8.64844 182.881 8.51172 182.891 8.38477C182.9 8.24805 182.925 8.13086 182.964 8.0332C183.013 7.92578 183.076 7.84277 183.154 7.78418C183.242 7.71582 183.359 7.68164 183.506 7.68164C183.76 7.68164 183.926 7.79395 184.004 8.01855C184.082 8.2334 184.121 8.49219 184.121 8.79492V23.0625C184.121 23.6875 183.955 24 183.623 24C183.398 24 183.12 23.8486 182.788 23.5459L167.686 9.55664V22.9746C167.686 23.2578 167.642 23.502 167.554 23.707C167.476 23.9023 167.319 24 167.085 24C166.802 24 166.621 23.9023 166.543 23.707C166.475 23.502 166.44 23.2578 166.44 22.9746V8.63379C166.44 8.34082 166.494 8.11621 166.602 7.95996C166.709 7.80371 166.855 7.72559 167.041 7.72559C167.285 7.72559 167.568 7.87207 167.891 8.16504L182.876 22.125ZM204.424 24C204.277 24 204.16 23.9951 204.072 23.9854C203.994 23.9756 203.936 23.9561 203.896 23.9268C203.857 23.8877 203.833 23.834 203.823 23.7656C203.823 23.6875 203.823 23.585 203.823 23.458V8.63379C203.823 8.37988 203.867 8.16016 203.955 7.97461C204.043 7.7793 204.229 7.68164 204.512 7.68164C204.746 7.68164 204.897 7.78418 204.966 7.98926C205.034 8.18457 205.068 8.39941 205.068 8.63379V23.0332H217.651C217.847 23.0332 217.993 23.0869 218.091 23.1943C218.198 23.292 218.252 23.3994 218.252 23.5166C218.252 23.6436 218.198 23.7559 218.091 23.8535C217.993 23.9512 217.847 24 217.651 24H204.424ZM255.767 15.8408C255.767 17.2666 255.552 18.5117 255.122 19.5762C254.702 20.6309 254.048 21.5098 253.159 22.2129C252.28 22.916 251.162 23.4434 249.805 23.7949C248.457 24.1367 246.855 24.3076 245 24.3076C243.145 24.3076 241.538 24.1367 240.181 23.7949C238.833 23.4434 237.72 22.916 236.841 22.2129C235.962 21.5098 235.308 20.6309 234.878 19.5762C234.458 18.5117 234.248 17.2666 234.248 15.8408C234.248 14.415 234.458 13.1748 234.878 12.1201C235.308 11.0557 235.962 10.1719 236.841 9.46875C237.72 8.76562 238.833 8.24316 240.181 7.90137C241.538 7.5498 243.145 7.37402 245 7.37402C246.855 7.37402 248.457 7.5498 249.805 7.90137C251.162 8.24316 252.28 8.76562 253.159 9.46875C254.048 10.1719 254.702 11.0557 255.122 12.1201C255.552 13.1748 255.767 14.415 255.767 15.8408ZM235.493 15.8408C235.493 17.208 235.688 18.3652 236.079 19.3125C236.47 20.2598 237.056 21.0361 237.837 21.6416C238.628 22.2373 239.619 22.6719 240.811 22.9453C242.002 23.209 243.398 23.3408 245 23.3408C246.602 23.3408 247.998 23.209 249.189 22.9453C250.381 22.6719 251.372 22.2373 252.163 21.6416C252.954 21.0361 253.545 20.2598 253.936 19.3125C254.326 18.3652 254.521 17.208 254.521 15.8408C254.521 14.4834 254.326 13.3311 253.936 12.3838C253.545 11.4268 252.954 10.6504 252.163 10.0547C251.372 9.44922 250.381 9.01465 249.189 8.75098C247.998 8.47754 246.602 8.34082 245 8.34082C243.398 8.34082 242.002 8.47754 240.811 8.75098C239.619 9.01465 238.628 9.44922 237.837 10.0547C237.056 10.6504 236.47 11.4268 236.079 12.3838C235.688 13.3311 235.493 14.4834 235.493 15.8408ZM274.385 15.8408C274.385 14.3174 274.614 13.0234 275.073 11.959C275.542 10.8848 276.235 10.0107 277.153 9.33691C278.071 8.65332 279.214 8.15527 280.581 7.84277C281.958 7.53027 283.555 7.37402 285.371 7.37402C286.641 7.37402 287.871 7.49121 289.062 7.72559C290.254 7.9502 291.465 8.31641 292.695 8.82422C292.852 8.89258 292.964 8.98047 293.032 9.08789C293.101 9.18555 293.135 9.2832 293.135 9.38086C293.135 9.49805 293.091 9.60059 293.003 9.68848C292.915 9.77637 292.803 9.82031 292.666 9.82031C292.627 9.82031 292.534 9.7959 292.388 9.74707C291.265 9.27832 290.103 8.92676 288.901 8.69238C287.7 8.45801 286.523 8.34082 285.371 8.34082C283.633 8.34082 282.148 8.4873 280.918 8.78027C279.688 9.06348 278.677 9.5127 277.886 10.1279C277.104 10.7334 276.533 11.5098 276.172 12.457C275.811 13.3945 275.63 14.5225 275.63 15.8408C275.63 17.1592 275.811 18.292 276.172 19.2393C276.533 20.1768 277.104 20.9531 277.886 21.5684C278.677 22.1738 279.688 22.623 280.918 22.916C282.148 23.1992 283.633 23.3408 285.371 23.3408C286.523 23.3408 287.7 23.2236 288.901 22.9893C290.103 22.7549 291.265 22.4033 292.388 21.9346C292.466 21.8955 292.554 21.876 292.651 21.876C292.798 21.876 292.915 21.9199 293.003 22.0078C293.101 22.0957 293.149 22.1982 293.149 22.3154C293.149 22.4131 293.115 22.5107 293.047 22.6084C292.979 22.7061 292.861 22.7891 292.695 22.8574C291.455 23.3652 290.239 23.7363 289.048 23.9707C287.866 24.1953 286.641 24.3076 285.371 24.3076C283.555 24.3076 281.958 24.1514 280.581 23.8389C279.214 23.5264 278.071 23.0332 277.153 22.3594C276.235 21.6758 275.542 20.8018 275.073 19.7373C274.614 18.6631 274.385 17.3643 274.385 15.8408ZM316.968 14.9033L325.508 22.8721C325.703 23.0479 325.801 23.2432 325.801 23.458C325.801 23.6045 325.752 23.7314 325.654 23.8389C325.557 23.9463 325.435 24 325.288 24C325.122 24 324.961 23.9268 324.805 23.7803L316.045 15.5039L313.013 17.4961V22.9746C313.013 23.2578 312.969 23.502 312.881 23.707C312.793 23.9023 312.632 24 312.397 24C312.114 24 311.934 23.9023 311.855 23.707C311.787 23.502 311.753 23.2676 311.753 23.0039V8.64844C311.753 8.36523 311.792 8.13574 311.87 7.95996C311.958 7.77441 312.144 7.68164 312.427 7.68164C312.661 7.68164 312.817 7.77441 312.896 7.95996C312.974 8.14551 313.013 8.36523 313.013 8.61914V16.3242L324.746 7.90137C324.854 7.82324 324.956 7.76953 325.054 7.74023C325.161 7.70117 325.254 7.68164 325.332 7.68164C325.488 7.68164 325.605 7.72559 325.684 7.81348C325.771 7.90137 325.815 8.01367 325.815 8.15039C325.815 8.36523 325.708 8.55078 325.493 8.70703L316.968 14.9033ZM359.814 23.4873C359.814 23.6338 359.79 23.7412 359.741 23.8096C359.692 23.8779 359.624 23.9268 359.536 23.9561C359.458 23.9854 359.36 24 359.243 24C359.126 24 358.994 24 358.848 24H345.166C345.068 24 344.995 23.9951 344.946 23.9854C344.897 23.9756 344.858 23.9512 344.829 23.9121C344.81 23.873 344.795 23.8242 344.785 23.7656C344.785 23.6973 344.785 23.6045 344.785 23.4873V8.37012C344.785 8.22363 344.785 8.10645 344.785 8.01855C344.795 7.93066 344.814 7.8623 344.844 7.81348C344.873 7.76465 344.922 7.73047 344.99 7.71094C345.068 7.69141 345.181 7.68164 345.327 7.68164H358.701C358.848 7.68164 358.984 7.68164 359.111 7.68164C359.238 7.68164 359.351 7.69629 359.448 7.72559C359.556 7.75488 359.639 7.80371 359.697 7.87207C359.756 7.94043 359.785 8.04785 359.785 8.19434C359.785 8.31152 359.756 8.4043 359.697 8.47266C359.639 8.53125 359.556 8.5752 359.448 8.60449C359.351 8.63379 359.238 8.64844 359.111 8.64844C358.984 8.64844 358.848 8.64844 358.701 8.64844H346.03V15.0645H358.628C358.843 15.0645 359.023 15.0938 359.17 15.1523C359.316 15.2109 359.39 15.3379 359.39 15.5332C359.39 15.748 359.326 15.8896 359.199 15.958C359.082 16.0264 358.926 16.0605 358.73 16.0605H346.03V23.0332H358.73C358.877 23.0332 359.014 23.0332 359.141 23.0332C359.268 23.0332 359.38 23.0479 359.478 23.0771C359.585 23.1064 359.668 23.1553 359.727 23.2236C359.785 23.2822 359.814 23.3701 359.814 23.4873ZM399.16 15.8115C399.16 17.374 398.955 18.6777 398.545 19.7227C398.135 20.7676 397.524 21.6074 396.714 22.2422C395.903 22.877 394.893 23.3311 393.682 23.6045C392.48 23.8682 391.084 24 389.492 24H379.414C379.268 24 379.155 24 379.077 24C379.009 23.9902 378.955 23.9707 378.916 23.9414C378.877 23.9023 378.853 23.8486 378.843 23.7803C378.843 23.7119 378.843 23.6143 378.843 23.4873V8.22363C378.843 8.07715 378.843 7.96973 378.843 7.90137C378.853 7.82324 378.877 7.76953 378.916 7.74023C378.955 7.71094 379.014 7.69629 379.092 7.69629C379.18 7.68652 379.297 7.68164 379.443 7.68164H389.492C391.084 7.68164 392.48 7.81836 393.682 8.0918C394.893 8.36523 395.903 8.82422 396.714 9.46875C397.524 10.1035 398.135 10.9385 398.545 11.9736C398.955 13.0088 399.16 14.2881 399.16 15.8115ZM397.915 15.8115C397.915 14.5518 397.773 13.4727 397.49 12.5742C397.207 11.666 396.738 10.9238 396.084 10.3477C395.43 9.76172 394.565 9.33203 393.491 9.05859C392.417 8.78516 391.084 8.64844 389.492 8.64844H380.088V23.0332H389.492C391.084 23.0332 392.417 22.8965 393.491 22.623C394.565 22.3496 395.43 21.9248 396.084 21.3486C396.738 20.7627 397.207 20.0156 397.49 19.1074C397.773 18.1895 397.915 17.0908 397.915 15.8115ZM439.502 15.8408C439.502 14.3174 439.731 13.0234 440.19 11.959C440.659 10.8848 441.353 10.0107 442.271 9.33691C443.188 8.65332 444.331 8.15527 445.698 7.84277C447.075 7.53027 448.672 7.37402 450.488 7.37402C451.758 7.37402 452.988 7.49121 454.18 7.72559C455.371 7.9502 456.582 8.31641 457.812 8.82422C457.969 8.89258 458.081 8.98047 458.149 9.08789C458.218 9.18555 458.252 9.2832 458.252 9.38086C458.252 9.49805 458.208 9.60059 458.12 9.68848C458.032 9.77637 457.92 9.82031 457.783 9.82031C457.744 9.82031 457.651 9.7959 457.505 9.74707C456.382 9.27832 455.22 8.92676 454.019 8.69238C452.817 8.45801 451.641 8.34082 450.488 8.34082C448.75 8.34082 447.266 8.4873 446.035 8.78027C444.805 9.06348 443.794 9.5127 443.003 10.1279C442.222 10.7334 441.65 11.5098 441.289 12.457C440.928 13.3945 440.747 14.5225 440.747 15.8408C440.747 17.1592 440.928 18.292 441.289 19.2393C441.65 20.1768 442.222 20.9531 443.003 21.5684C443.794 22.1738 444.805 22.623 446.035 22.916C447.266 23.1992 448.75 23.3408 450.488 23.3408C451.641 23.3408 452.817 23.2236 454.019 22.9893C455.22 22.7549 456.382 22.4033 457.505 21.9346C457.583 21.8955 457.671 21.876 457.769 21.876C457.915 21.876 458.032 21.9199 458.12 22.0078C458.218 22.0957 458.267 22.1982 458.267 22.3154C458.267 22.4131 458.232 22.5107 458.164 22.6084C458.096 22.7061 457.979 22.7891 457.812 22.8574C456.572 23.3652 455.356 23.7363 454.165 23.9707C452.983 24.1953 451.758 24.3076 450.488 24.3076C448.672 24.3076 447.075 24.1514 445.698 23.8389C444.331 23.5264 443.188 23.0332 442.271 22.3594C441.353 21.6758 440.659 20.8018 440.19 19.7373C439.731 18.6631 439.502 17.3643 439.502 15.8408ZM476.855 8.70703C476.855 8.58008 476.86 8.45801 476.87 8.34082C476.89 8.21387 476.924 8.10156 476.973 8.00391C477.031 7.90625 477.104 7.82812 477.192 7.76953C477.29 7.71094 477.412 7.68164 477.559 7.68164C477.666 7.68164 477.754 7.71582 477.822 7.78418C477.891 7.84277 477.944 7.9209 477.983 8.01855C478.032 8.11621 478.062 8.22852 478.071 8.35547C478.091 8.47266 478.101 8.58984 478.101 8.70703V15.123H491.064V8.70703C491.064 8.58008 491.069 8.45801 491.079 8.34082C491.089 8.21387 491.113 8.10156 491.152 8.00391C491.201 7.90625 491.265 7.82812 491.343 7.76953C491.421 7.71094 491.533 7.68164 491.68 7.68164C491.826 7.68164 491.938 7.71094 492.017 7.76953C492.104 7.82812 492.168 7.90625 492.207 8.00391C492.256 8.10156 492.285 8.21387 492.295 8.34082C492.305 8.45801 492.31 8.58008 492.31 8.70703V22.9746C492.31 23.1016 492.305 23.2285 492.295 23.3555C492.285 23.4727 492.256 23.5801 492.207 23.6777C492.168 23.7754 492.109 23.8535 492.031 23.9121C491.953 23.9707 491.841 24 491.694 24C491.548 24 491.431 23.9707 491.343 23.9121C491.265 23.8535 491.201 23.7754 491.152 23.6777C491.113 23.5801 491.089 23.4727 491.079 23.3555C491.069 23.2285 491.064 23.1016 491.064 22.9746V16.0312H478.101V22.9746C478.101 23.0918 478.091 23.2139 478.071 23.3408C478.052 23.458 478.018 23.5654 477.969 23.6631C477.93 23.7607 477.871 23.8438 477.793 23.9121C477.725 23.9707 477.637 24 477.529 24C477.383 24 477.261 23.9707 477.163 23.9121C477.075 23.8535 477.007 23.7754 476.958 23.6777C476.919 23.5801 476.89 23.4727 476.87 23.3555C476.86 23.2285 476.855 23.1016 476.855 22.9746V8.70703ZM518.765 8.42871C518.921 8.14551 519.043 7.9502 519.131 7.84277C519.219 7.73535 519.351 7.68164 519.526 7.68164C519.663 7.68164 519.78 7.73535 519.878 7.84277C519.985 7.94043 520.122 8.13574 520.288 8.42871L528.374 23.0186C528.481 23.2139 528.535 23.4043 528.535 23.5898C528.535 23.7656 528.486 23.9023 528.389 24C528.291 24.0977 528.174 24.1465 528.037 24.1465C527.9 24.1465 527.764 24.0977 527.627 24C527.5 23.9121 527.368 23.7461 527.231 23.502L524.741 18.9902H514.312L511.792 23.5605C511.685 23.7656 511.558 23.9121 511.411 24C511.274 24.0977 511.138 24.1465 511.001 24.1465C510.835 24.1465 510.713 24.0879 510.635 23.9707C510.557 23.8535 510.518 23.6973 510.518 23.502C510.518 23.4238 510.532 23.3457 510.562 23.2676C510.601 23.1895 510.645 23.1016 510.693 23.0039L518.765 8.42871ZM524.316 18.126L519.526 9.38086L514.736 18.126H524.316ZM561.333 13.4971C561.333 14.3857 561.221 15.1377 560.996 15.7529C560.781 16.3584 560.479 16.8613 560.088 17.2617C559.697 17.6621 559.224 17.9746 558.667 18.1992C558.12 18.4141 557.515 18.5752 556.851 18.6826C556.187 18.79 555.474 18.8535 554.712 18.873C553.96 18.8926 553.184 18.9023 552.383 18.9023H548.018V22.8867C548.018 23.1699 547.979 23.4287 547.9 23.6631C547.832 23.8877 547.681 24 547.446 24C547.163 24 546.978 23.8926 546.89 23.6777C546.812 23.4531 546.772 23.1895 546.772 22.8867V8.22363C546.772 8.07715 546.782 7.96973 546.802 7.90137C546.831 7.82324 546.875 7.76953 546.934 7.74023C546.992 7.71094 547.065 7.69629 547.153 7.69629C547.251 7.68652 547.373 7.68164 547.52 7.68164H552.383C553.271 7.68164 554.106 7.70605 554.888 7.75488C555.679 7.80371 556.406 7.90625 557.07 8.0625C557.734 8.20898 558.33 8.41406 558.857 8.67773C559.385 8.94141 559.829 9.29297 560.19 9.73242C560.562 10.1621 560.845 10.6846 561.04 11.2998C561.235 11.915 561.333 12.6475 561.333 13.4971ZM560.088 13.4971C560.088 12.4814 559.932 11.6562 559.619 11.0215C559.316 10.3867 558.848 9.89355 558.213 9.54199C557.588 9.19043 556.792 8.95605 555.825 8.83887C554.858 8.71191 553.711 8.64844 552.383 8.64844H548.018V17.9941H552.383C553.711 17.9941 554.858 17.9551 555.825 17.877C556.802 17.7891 557.603 17.5938 558.228 17.291C558.862 16.9785 559.331 16.5244 559.634 15.9287C559.937 15.333 560.088 14.5225 560.088 13.4971ZM596.24 8.22363C596.24 8.41895 596.172 8.54102 596.035 8.58984C595.898 8.62891 595.723 8.64844 595.508 8.64844H587.319V22.916C587.319 23.0625 587.314 23.1992 587.305 23.3262C587.295 23.4531 587.266 23.5703 587.217 23.6777C587.178 23.7754 587.119 23.8535 587.041 23.9121C586.963 23.9707 586.851 24 586.704 24C586.45 24 586.279 23.8926 586.191 23.6777C586.113 23.4531 586.074 23.1992 586.074 22.916V8.64844H577.871C577.656 8.64844 577.471 8.62891 577.314 8.58984C577.168 8.54102 577.095 8.41895 577.095 8.22363C577.095 8.07715 577.129 7.96973 577.197 7.90137C577.266 7.82324 577.349 7.76953 577.446 7.74023C577.554 7.71094 577.671 7.69629 577.798 7.69629C577.935 7.68652 578.062 7.68164 578.179 7.68164H595.186C595.332 7.68164 595.469 7.68652 595.596 7.69629C595.723 7.69629 595.83 7.71094 595.918 7.74023C596.016 7.76953 596.094 7.82324 596.152 7.90137C596.211 7.96973 596.24 8.07715 596.24 8.22363ZM628.906 23.4873C628.906 23.6338 628.882 23.7412 628.833 23.8096C628.784 23.8779 628.716 23.9268 628.628 23.9561C628.55 23.9854 628.452 24 628.335 24C628.218 24 628.086 24 627.939 24H614.258C614.16 24 614.087 23.9951 614.038 23.9854C613.989 23.9756 613.95 23.9512 613.921 23.9121C613.901 23.873 613.887 23.8242 613.877 23.7656C613.877 23.6973 613.877 23.6045 613.877 23.4873V8.37012C613.877 8.22363 613.877 8.10645 613.877 8.01855C613.887 7.93066 613.906 7.8623 613.936 7.81348C613.965 7.76465 614.014 7.73047 614.082 7.71094C614.16 7.69141 614.272 7.68164 614.419 7.68164H627.793C627.939 7.68164 628.076 7.68164 628.203 7.68164C628.33 7.68164 628.442 7.69629 628.54 7.72559C628.647 7.75488 628.73 7.80371 628.789 7.87207C628.848 7.94043 628.877 8.04785 628.877 8.19434C628.877 8.31152 628.848 8.4043 628.789 8.47266C628.73 8.53125 628.647 8.5752 628.54 8.60449C628.442 8.63379 628.33 8.64844 628.203 8.64844C628.076 8.64844 627.939 8.64844 627.793 8.64844H615.122V15.0645H627.72C627.935 15.0645 628.115 15.0938 628.262 15.1523C628.408 15.2109 628.481 15.3379 628.481 15.5332C628.481 15.748 628.418 15.8896 628.291 15.958C628.174 16.0264 628.018 16.0605 627.822 16.0605H615.122V23.0332H627.822C627.969 23.0332 628.105 23.0332 628.232 23.0332C628.359 23.0332 628.472 23.0479 628.569 23.0771C628.677 23.1064 628.76 23.1553 628.818 23.2236C628.877 23.2822 628.906 23.3701 628.906 23.4873ZM662.305 12.75C662.305 13.3457 662.217 13.8682 662.041 14.3174C661.865 14.7666 661.626 15.1572 661.323 15.4893C661.03 15.8213 660.679 16.0996 660.269 16.3242C659.868 16.5488 659.438 16.7344 658.979 16.8809C658.521 17.0176 658.042 17.1201 657.544 17.1885C657.056 17.2568 656.577 17.3008 656.108 17.3203L661.499 22.9893C661.587 23.0771 661.646 23.1699 661.675 23.2676C661.714 23.3555 661.738 23.4385 661.748 23.5166C661.748 23.6533 661.699 23.7705 661.602 23.8682C661.514 23.9561 661.396 24 661.25 24C661.143 24 661.025 23.9756 660.898 23.9268C660.781 23.8779 660.664 23.7852 660.547 23.6484L654.673 17.3789H649.194V22.8867C649.194 23.0332 649.185 23.1748 649.165 23.3115C649.155 23.4385 649.131 23.5557 649.092 23.6631C649.053 23.7607 648.994 23.8438 648.916 23.9121C648.848 23.9707 648.755 24 648.638 24C648.354 24 648.169 23.8926 648.081 23.6777C647.993 23.4531 647.949 23.1895 647.949 22.8867V8.22363C647.949 8.07715 647.949 7.96973 647.949 7.90137C647.959 7.82324 647.979 7.76953 648.008 7.74023C648.037 7.71094 648.086 7.69629 648.154 7.69629C648.232 7.68652 648.345 7.68164 648.491 7.68164H652.739C653.647 7.68164 654.512 7.69141 655.332 7.71094C656.162 7.73047 656.929 7.79395 657.632 7.90137C658.345 7.99902 658.989 8.15527 659.565 8.37012C660.142 8.5752 660.63 8.86816 661.03 9.24902C661.44 9.62012 661.753 10.0889 661.968 10.6553C662.192 11.2217 662.305 11.9199 662.305 12.75ZM661.06 12.75C661.06 11.7832 660.879 11.0264 660.518 10.4795C660.166 9.92285 659.639 9.5127 658.936 9.24902C658.232 8.97559 657.363 8.80957 656.328 8.75098C655.293 8.68262 654.097 8.64844 652.739 8.64844H649.194V16.4121H654.688C655.537 16.4121 656.348 16.373 657.119 16.2949C657.891 16.2168 658.564 16.0508 659.141 15.7969C659.727 15.5332 660.19 15.1621 660.532 14.6836C660.884 14.2051 661.06 13.5605 661.06 12.75ZM680.938 15.7822C680.938 15.499 681.021 15.2695 681.187 15.0938C681.362 14.918 681.592 14.8301 681.875 14.8301C682.139 14.8301 682.363 14.918 682.549 15.0938C682.744 15.2695 682.842 15.499 682.842 15.7822C682.842 16.0557 682.744 16.2754 682.549 16.4414C682.363 16.6074 682.139 16.6904 681.875 16.6904C681.592 16.6904 681.362 16.6074 681.187 16.4414C681.021 16.2754 680.938 16.0557 680.938 15.7822ZM680.938 21.0117C680.938 20.7285 681.021 20.499 681.187 20.3232C681.362 20.1475 681.592 20.0596 681.875 20.0596C682.139 20.0596 682.363 20.1475 682.549 20.3232C682.744 20.499 682.842 20.7285 682.842 21.0117C682.842 21.2852 682.744 21.5049 682.549 21.6709C682.363 21.8369 682.139 21.9199 681.875 21.9199C681.592 21.9199 681.362 21.8369 681.187 21.6709C681.021 21.5049 680.938 21.2852 680.938 21.0117Z" fill="white"/>
<path d="M45.6 118.28C41.0667 118.28 36.88 117.587 33.04 116.2C29.2533 114.76 25.9467 112.733 23.12 110.12C20.3467 107.507 18.1867 104.413 16.64 100.84C15.0933 97.2667 14.32 93.32 14.32 89C14.32 84.68 15.0933 80.7333 16.64 77.16C18.1867 73.5867 20.3733 70.4933 23.2 67.88C26.0267 65.2667 29.36 63.2667 33.2 61.88C37.0933 60.44 41.36 59.72 46 59.72C51.5467 59.72 56.48 60.6533 60.8 62.52C65.1733 64.3867 68.7733 67.0533 71.6 70.52L59.52 81.16C57.76 79.1333 55.84 77.6133 53.76 76.6C51.7333 75.5333 49.4667 75 46.96 75C44.88 75 42.9867 75.32 41.28 75.96C39.6267 76.6 38.2133 77.5333 37.04 78.76C35.8667 79.9867 34.96 81.4533 34.32 83.16C33.68 84.8667 33.36 86.8133 33.36 89C33.36 91.08 33.68 93 34.32 94.76C34.96 96.4667 35.8667 97.9333 37.04 99.16C38.2133 100.387 39.6 101.347 41.2 102.04C42.8533 102.68 44.6933 103 46.72 103C48.8533 103 50.9333 102.653 52.96 101.96C54.9867 101.213 57.1467 99.96 59.44 98.2L70 111.16C66.5867 113.453 62.6933 115.213 58.32 116.44C53.9467 117.667 49.7067 118.28 45.6 118.28ZM53.6 108.76V87.48H70V111.16L53.6 108.76ZM86.0444 117V61H113.004C118.231 61 122.738 61.8533 126.524 63.56C130.364 65.2667 133.324 67.72 135.404 70.92C137.484 74.0667 138.524 77.8 138.524 82.12C138.524 86.44 137.484 90.1733 135.404 93.32C133.324 96.4133 130.364 98.7867 126.524 100.44C122.738 102.093 118.231 102.92 113.004 102.92H96.5244L104.924 95.16V117H86.0444ZM119.564 117L105.804 96.6H125.804L139.724 117H119.564ZM104.924 97.24L96.5244 88.68H111.804C114.418 88.68 116.338 88.0933 117.564 86.92C118.844 85.7467 119.484 84.1467 119.484 82.12C119.484 80.0933 118.844 78.4933 117.564 77.32C116.338 76.1467 114.418 75.56 111.804 75.56H96.5244L104.924 67V97.24ZM147.574 117L172.054 61H190.614L215.094 117H195.574L177.494 69.96H184.854L166.774 117H147.574ZM162.134 107.24L166.934 93.64H192.694L197.494 107.24H162.134ZM226.107 117V61H253.707C259.947 61 265.44 62.1467 270.187 64.44C274.934 66.68 278.64 69.88 281.307 74.04C283.974 78.2 285.307 83.16 285.307 88.92C285.307 94.7333 283.974 99.7467 281.307 103.96C278.64 108.12 274.934 111.347 270.187 113.64C265.44 115.88 259.947 117 253.707 117H226.107ZM244.987 102.28H252.907C255.574 102.28 257.894 101.773 259.867 100.76C261.894 99.7467 263.467 98.2533 264.587 96.28C265.707 94.2533 266.267 91.8 266.267 88.92C266.267 86.0933 265.707 83.6933 264.587 81.72C263.467 79.7467 261.894 78.2533 259.867 77.24C257.894 76.2267 255.574 75.72 252.907 75.72H244.987V102.28ZM327.001 118.28C318.414 118.28 311.721 115.96 306.921 111.32C302.121 106.68 299.721 100.173 299.721 91.8V61H318.601V91.24C318.601 95.5067 319.374 98.5467 320.921 100.36C322.467 102.12 324.547 103 327.161 103C329.827 103 331.907 102.12 333.401 100.36C334.947 98.5467 335.721 95.5067 335.721 91.24V61H354.281V91.8C354.281 100.173 351.881 106.68 347.081 111.32C342.281 115.96 335.587 118.28 327.001 118.28ZM363.683 117L388.163 61H406.723L431.203 117H411.683L393.603 69.96H400.963L382.883 117H363.683ZM378.243 107.24L383.043 93.64H408.803L413.603 107.24H378.243ZM451.564 117V75.64H435.164V61H486.844V75.64H470.444V117H451.564ZM499.748 117V61H518.628V117H499.748ZM565.076 118.28C560.543 118.28 556.33 117.56 552.436 116.12C548.596 114.68 545.263 112.653 542.436 110.04C539.61 107.373 537.396 104.253 535.796 100.68C534.25 97.1067 533.476 93.2133 533.476 89C533.476 84.7333 534.25 80.84 535.796 77.32C537.396 73.7467 539.61 70.6533 542.436 68.04C545.263 65.3733 548.596 63.32 552.436 61.88C556.33 60.44 560.543 59.72 565.076 59.72C569.663 59.72 573.876 60.44 577.716 61.88C581.556 63.32 584.89 65.3733 587.716 68.04C590.543 70.6533 592.73 73.7467 594.276 77.32C595.876 80.84 596.676 84.7333 596.676 89C596.676 93.2133 595.876 97.1067 594.276 100.68C592.73 104.253 590.543 107.373 587.716 110.04C584.89 112.653 581.556 114.68 577.716 116.12C573.876 117.56 569.663 118.28 565.076 118.28ZM565.076 103C566.836 103 568.463 102.68 569.956 102.04C571.503 101.4 572.836 100.493 573.956 99.32C575.13 98.0933 576.036 96.6267 576.676 94.92C577.316 93.16 577.636 91.1867 577.636 89C577.636 86.8133 577.316 84.8667 576.676 83.16C576.036 81.4 575.13 79.9333 573.956 78.76C572.836 77.5333 571.503 76.6 569.956 75.96C568.463 75.32 566.836 75 565.076 75C563.316 75 561.663 75.32 560.116 75.96C558.623 76.6 557.29 77.5333 556.116 78.76C554.996 79.9333 554.116 81.4 553.476 83.16C552.836 84.8667 552.516 86.8133 552.516 89C552.516 91.1867 552.836 93.16 553.476 94.92C554.116 96.6267 554.996 98.0933 556.116 99.32C557.29 100.493 558.623 101.4 560.116 102.04C561.663 102.68 563.316 103 565.076 103ZM611.529 117V61H627.049L655.529 95.08H648.329V61H666.729V117H651.209L622.729 82.92H629.929V117H611.529Z" fill="white"/>
</svg>
