<svg width="660" height="137" viewBox="0 0 660 137" fill="none" xmlns="http://www.w3.org/2000/svg">
<path d="M80.4092 8.22363C80.4092 8.41895 80.3408 8.54102 80.2041 8.58984C80.0674 8.62891 79.8916 8.64844 79.6768 8.64844H71.4883V22.916C71.4883 23.0625 71.4834 23.1992 71.4736 23.3262C71.4639 23.4531 71.4346 23.5703 71.3857 23.6777C71.3467 23.7754 71.2881 23.8535 71.21 23.9121C71.1318 23.9707 71.0195 24 70.873 24C70.6191 24 70.4482 23.8926 70.3604 23.6777C70.2822 23.4531 70.2432 23.1992 70.2432 22.916V8.64844H62.04C61.8252 8.64844 61.6396 8.62891 61.4834 8.58984C61.3369 8.54102 61.2637 8.41895 61.2637 8.22363C61.2637 8.07715 61.2979 7.96973 61.3662 7.90137C61.4346 7.82324 61.5176 7.76953 61.6152 7.74023C61.7227 7.71094 61.8398 7.69629 61.9668 7.69629C62.1035 7.68652 62.2305 7.68164 62.3477 7.68164H79.3545C79.501 7.68164 79.6377 7.68652 79.7646 7.69629C79.8916 7.69629 79.999 7.71094 80.0869 7.74023C80.1846 7.76953 80.2627 7.82324 80.3213 7.90137C80.3799 7.96973 80.4092 8.07715 80.4092 8.22363ZM98.0166 8.70703C98.0166 8.58008 98.0215 8.45801 98.0312 8.34082C98.0508 8.21387 98.085 8.10156 98.1338 8.00391C98.1924 7.90625 98.2656 7.82812 98.3535 7.76953C98.4512 7.71094 98.5732 7.68164 98.7197 7.68164C98.8271 7.68164 98.915 7.71582 98.9834 7.78418C99.0518 7.84277 99.1055 7.9209 99.1445 8.01855C99.1934 8.11621 99.2227 8.22852 99.2324 8.35547C99.252 8.47266 99.2617 8.58984 99.2617 8.70703V15.123H112.226V8.70703C112.226 8.58008 112.23 8.45801 112.24 8.34082C112.25 8.21387 112.274 8.10156 112.313 8.00391C112.362 7.90625 112.426 7.82812 112.504 7.76953C112.582 7.71094 112.694 7.68164 112.841 7.68164C112.987 7.68164 113.1 7.71094 113.178 7.76953C113.266 7.82812 113.329 7.90625 113.368 8.00391C113.417 8.10156 113.446 8.21387 113.456 8.34082C113.466 8.45801 113.471 8.58008 113.471 8.70703V22.9746C113.471 23.1016 113.466 23.2285 113.456 23.3555C113.446 23.4727 113.417 23.5801 113.368 23.6777C113.329 23.7754 113.271 23.8535 113.192 23.9121C113.114 23.9707 113.002 24 112.855 24C112.709 24 112.592 23.9707 112.504 23.9121C112.426 23.8535 112.362 23.7754 112.313 23.6777C112.274 23.5801 112.25 23.4727 112.24 23.3555C112.23 23.2285 112.226 23.1016 112.226 22.9746V16.0312H99.2617V22.9746C99.2617 23.0918 99.252 23.2139 99.2324 23.3408C99.2129 23.458 99.1787 23.5654 99.1299 23.6631C99.0908 23.7607 99.0322 23.8438 98.9541 23.9121C98.8857 23.9707 98.7979 24 98.6904 24C98.5439 24 98.4219 23.9707 98.3242 23.9121C98.2363 23.8535 98.168 23.7754 98.1191 23.6777C98.0801 23.5801 98.0508 23.4727 98.0312 23.3555C98.0215 23.2285 98.0166 23.1016 98.0166 22.9746V8.70703ZM148.202 23.4873C148.202 23.6338 148.178 23.7412 148.129 23.8096C148.08 23.8779 148.012 23.9268 147.924 23.9561C147.846 23.9854 147.748 24 147.631 24C147.514 24 147.382 24 147.235 24H133.554C133.456 24 133.383 23.9951 133.334 23.9854C133.285 23.9756 133.246 23.9512 133.217 23.9121C133.197 23.873 133.183 23.8242 133.173 23.7656C133.173 23.6973 133.173 23.6045 133.173 23.4873V8.37012C133.173 8.22363 133.173 8.10645 133.173 8.01855C133.183 7.93066 133.202 7.8623 133.231 7.81348C133.261 7.76465 133.31 7.73047 133.378 7.71094C133.456 7.69141 133.568 7.68164 133.715 7.68164H147.089C147.235 7.68164 147.372 7.68164 147.499 7.68164C147.626 7.68164 147.738 7.69629 147.836 7.72559C147.943 7.75488 148.026 7.80371 148.085 7.87207C148.144 7.94043 148.173 8.04785 148.173 8.19434C148.173 8.31152 148.144 8.4043 148.085 8.47266C148.026 8.53125 147.943 8.5752 147.836 8.60449C147.738 8.63379 147.626 8.64844 147.499 8.64844C147.372 8.64844 147.235 8.64844 147.089 8.64844H134.418V15.0645H147.016C147.23 15.0645 147.411 15.0938 147.558 15.1523C147.704 15.2109 147.777 15.3379 147.777 15.5332C147.777 15.748 147.714 15.8896 147.587 15.958C147.47 16.0264 147.313 16.0605 147.118 16.0605H134.418V23.0332H147.118C147.265 23.0332 147.401 23.0332 147.528 23.0332C147.655 23.0332 147.768 23.0479 147.865 23.0771C147.973 23.1064 148.056 23.1553 148.114 23.2236C148.173 23.2822 148.202 23.3701 148.202 23.4873ZM205.404 22.125V8.79492C205.404 8.64844 205.409 8.51172 205.419 8.38477C205.429 8.24805 205.453 8.13086 205.492 8.0332C205.541 7.92578 205.604 7.84277 205.683 7.78418C205.771 7.71582 205.888 7.68164 206.034 7.68164C206.288 7.68164 206.454 7.79395 206.532 8.01855C206.61 8.2334 206.649 8.49219 206.649 8.79492V23.0625C206.649 23.6875 206.483 24 206.151 24C205.927 24 205.648 23.8486 205.316 23.5459L190.214 9.55664V22.9746C190.214 23.2578 190.17 23.502 190.082 23.707C190.004 23.9023 189.848 24 189.613 24C189.33 24 189.149 23.9023 189.071 23.707C189.003 23.502 188.969 23.2578 188.969 22.9746V8.63379C188.969 8.34082 189.022 8.11621 189.13 7.95996C189.237 7.80371 189.384 7.72559 189.569 7.72559C189.813 7.72559 190.097 7.87207 190.419 8.16504L205.404 22.125ZM241.396 23.4873C241.396 23.6338 241.371 23.7412 241.322 23.8096C241.273 23.8779 241.205 23.9268 241.117 23.9561C241.039 23.9854 240.941 24 240.824 24C240.707 24 240.575 24 240.429 24H226.747C226.649 24 226.576 23.9951 226.527 23.9854C226.479 23.9756 226.439 23.9512 226.41 23.9121C226.391 23.873 226.376 23.8242 226.366 23.7656C226.366 23.6973 226.366 23.6045 226.366 23.4873V8.37012C226.366 8.22363 226.366 8.10645 226.366 8.01855C226.376 7.93066 226.396 7.8623 226.425 7.81348C226.454 7.76465 226.503 7.73047 226.571 7.71094C226.649 7.69141 226.762 7.68164 226.908 7.68164H240.282C240.429 7.68164 240.565 7.68164 240.692 7.68164C240.819 7.68164 240.932 7.69629 241.029 7.72559C241.137 7.75488 241.22 7.80371 241.278 7.87207C241.337 7.94043 241.366 8.04785 241.366 8.19434C241.366 8.31152 241.337 8.4043 241.278 8.47266C241.22 8.53125 241.137 8.5752 241.029 8.60449C240.932 8.63379 240.819 8.64844 240.692 8.64844C240.565 8.64844 240.429 8.64844 240.282 8.64844H227.611V15.0645H240.209C240.424 15.0645 240.604 15.0938 240.751 15.1523C240.897 15.2109 240.971 15.3379 240.971 15.5332C240.971 15.748 240.907 15.8896 240.78 15.958C240.663 16.0264 240.507 16.0605 240.312 16.0605H227.611V23.0332H240.312C240.458 23.0332 240.595 23.0332 240.722 23.0332C240.849 23.0332 240.961 23.0479 241.059 23.0771C241.166 23.1064 241.249 23.1553 241.308 23.2236C241.366 23.2822 241.396 23.3701 241.396 23.4873ZM268.583 15.2695L275.849 7.98926C276.044 7.79395 276.239 7.69629 276.435 7.69629C276.571 7.69629 276.679 7.74512 276.757 7.84277C276.845 7.94043 276.889 8.05762 276.889 8.19434C276.889 8.27246 276.869 8.36035 276.83 8.45801C276.791 8.55566 276.728 8.64844 276.64 8.73633L269.345 15.9873L276.771 22.9014C276.898 23.0186 276.986 23.1406 277.035 23.2676C277.094 23.3848 277.123 23.4922 277.123 23.5898C277.123 23.707 277.084 23.8047 277.006 23.8828C276.938 23.9609 276.845 24 276.728 24C276.513 24 276.283 23.8828 276.039 23.6484L268.583 16.7051L261.127 23.6631C260.98 23.7998 260.854 23.8926 260.746 23.9414C260.639 23.9805 260.536 24 260.438 24C260.312 24 260.209 23.9658 260.131 23.8975C260.062 23.8193 260.028 23.7217 260.028 23.6045C260.028 23.3799 260.15 23.1504 260.395 22.916L267.821 15.9873L260.526 8.73633C260.351 8.56055 260.263 8.37988 260.263 8.19434C260.263 8.05762 260.307 7.94043 260.395 7.84277C260.482 7.74512 260.595 7.69629 260.731 7.69629C260.927 7.69629 261.122 7.79395 261.317 7.98926L268.583 15.2695ZM313.524 8.22363C313.524 8.41895 313.456 8.54102 313.319 8.58984C313.183 8.62891 313.007 8.64844 312.792 8.64844H304.604V22.916C304.604 23.0625 304.599 23.1992 304.589 23.3262C304.579 23.4531 304.55 23.5703 304.501 23.6777C304.462 23.7754 304.403 23.8535 304.325 23.9121C304.247 23.9707 304.135 24 303.988 24C303.734 24 303.563 23.8926 303.476 23.6777C303.397 23.4531 303.358 23.1992 303.358 22.916V8.64844H295.155C294.94 8.64844 294.755 8.62891 294.599 8.58984C294.452 8.54102 294.379 8.41895 294.379 8.22363C294.379 8.07715 294.413 7.96973 294.481 7.90137C294.55 7.82324 294.633 7.76953 294.73 7.74023C294.838 7.71094 294.955 7.69629 295.082 7.69629C295.219 7.68652 295.346 7.68164 295.463 7.68164H312.47C312.616 7.68164 312.753 7.68652 312.88 7.69629C313.007 7.69629 313.114 7.71094 313.202 7.74023C313.3 7.76953 313.378 7.82324 313.437 7.90137C313.495 7.96973 313.524 8.07715 313.524 8.22363ZM352.343 15.8408C352.343 14.3174 352.572 13.0234 353.031 11.959C353.5 10.8848 354.193 10.0107 355.111 9.33691C356.029 8.65332 357.172 8.15527 358.539 7.84277C359.916 7.53027 361.513 7.37402 363.329 7.37402C364.599 7.37402 365.829 7.49121 367.021 7.72559C368.212 7.9502 369.423 8.31641 370.653 8.82422C370.81 8.89258 370.922 8.98047 370.99 9.08789C371.059 9.18555 371.093 9.2832 371.093 9.38086C371.093 9.49805 371.049 9.60059 370.961 9.68848C370.873 9.77637 370.761 9.82031 370.624 9.82031C370.585 9.82031 370.492 9.7959 370.346 9.74707C369.223 9.27832 368.061 8.92676 366.859 8.69238C365.658 8.45801 364.481 8.34082 363.329 8.34082C361.591 8.34082 360.106 8.4873 358.876 8.78027C357.646 9.06348 356.635 9.5127 355.844 10.1279C355.062 10.7334 354.491 11.5098 354.13 12.457C353.769 13.3945 353.588 14.5225 353.588 15.8408C353.588 17.1592 353.769 18.292 354.13 19.2393C354.491 20.1768 355.062 20.9531 355.844 21.5684C356.635 22.1738 357.646 22.623 358.876 22.916C360.106 23.1992 361.591 23.3408 363.329 23.3408C364.481 23.3408 365.658 23.2236 366.859 22.9893C368.061 22.7549 369.223 22.4033 370.346 21.9346C370.424 21.8955 370.512 21.876 370.609 21.876C370.756 21.876 370.873 21.9199 370.961 22.0078C371.059 22.0957 371.107 22.1982 371.107 22.3154C371.107 22.4131 371.073 22.5107 371.005 22.6084C370.937 22.7061 370.819 22.7891 370.653 22.8574C369.413 23.3652 368.197 23.7363 367.006 23.9707C365.824 24.1953 364.599 24.3076 363.329 24.3076C361.513 24.3076 359.916 24.1514 358.539 23.8389C357.172 23.5264 356.029 23.0332 355.111 22.3594C354.193 21.6758 353.5 20.8018 353.031 19.7373C352.572 18.6631 352.343 17.3643 352.343 15.8408ZM389.696 8.70703C389.696 8.58008 389.701 8.45801 389.711 8.34082C389.73 8.21387 389.765 8.10156 389.813 8.00391C389.872 7.90625 389.945 7.82812 390.033 7.76953C390.131 7.71094 390.253 7.68164 390.399 7.68164C390.507 7.68164 390.595 7.71582 390.663 7.78418C390.731 7.84277 390.785 7.9209 390.824 8.01855C390.873 8.11621 390.902 8.22852 390.912 8.35547C390.932 8.47266 390.941 8.58984 390.941 8.70703V15.123H403.905V8.70703C403.905 8.58008 403.91 8.45801 403.92 8.34082C403.93 8.21387 403.954 8.10156 403.993 8.00391C404.042 7.90625 404.105 7.82812 404.184 7.76953C404.262 7.71094 404.374 7.68164 404.521 7.68164C404.667 7.68164 404.779 7.71094 404.857 7.76953C404.945 7.82812 405.009 7.90625 405.048 8.00391C405.097 8.10156 405.126 8.21387 405.136 8.34082C405.146 8.45801 405.15 8.58008 405.15 8.70703V22.9746C405.15 23.1016 405.146 23.2285 405.136 23.3555C405.126 23.4727 405.097 23.5801 405.048 23.6777C405.009 23.7754 404.95 23.8535 404.872 23.9121C404.794 23.9707 404.682 24 404.535 24C404.389 24 404.271 23.9707 404.184 23.9121C404.105 23.8535 404.042 23.7754 403.993 23.6777C403.954 23.5801 403.93 23.4727 403.92 23.3555C403.91 23.2285 403.905 23.1016 403.905 22.9746V16.0312H390.941V22.9746C390.941 23.0918 390.932 23.2139 390.912 23.3408C390.893 23.458 390.858 23.5654 390.81 23.6631C390.771 23.7607 390.712 23.8438 390.634 23.9121C390.565 23.9707 390.478 24 390.37 24C390.224 24 390.102 23.9707 390.004 23.9121C389.916 23.8535 389.848 23.7754 389.799 23.6777C389.76 23.5801 389.73 23.4727 389.711 23.3555C389.701 23.2285 389.696 23.1016 389.696 22.9746V8.70703ZM431.605 8.42871C431.762 8.14551 431.884 7.9502 431.972 7.84277C432.06 7.73535 432.191 7.68164 432.367 7.68164C432.504 7.68164 432.621 7.73535 432.719 7.84277C432.826 7.94043 432.963 8.13574 433.129 8.42871L441.215 23.0186C441.322 23.2139 441.376 23.4043 441.376 23.5898C441.376 23.7656 441.327 23.9023 441.229 24C441.132 24.0977 441.015 24.1465 440.878 24.1465C440.741 24.1465 440.604 24.0977 440.468 24C440.341 23.9121 440.209 23.7461 440.072 23.502L437.582 18.9902H427.152L424.633 23.5605C424.525 23.7656 424.398 23.9121 424.252 24C424.115 24.0977 423.979 24.1465 423.842 24.1465C423.676 24.1465 423.554 24.0879 423.476 23.9707C423.397 23.8535 423.358 23.6973 423.358 23.502C423.358 23.4238 423.373 23.3457 423.402 23.2676C423.441 23.1895 423.485 23.1016 423.534 23.0039L431.605 8.42871ZM437.157 18.126L432.367 9.38086L427.577 18.126H437.157ZM474.174 13.4971C474.174 14.3857 474.062 15.1377 473.837 15.7529C473.622 16.3584 473.319 16.8613 472.929 17.2617C472.538 17.6621 472.064 17.9746 471.508 18.1992C470.961 18.4141 470.355 18.5752 469.691 18.6826C469.027 18.79 468.314 18.8535 467.553 18.873C466.801 18.8926 466.024 18.9023 465.224 18.9023H460.858V22.8867C460.858 23.1699 460.819 23.4287 460.741 23.6631C460.673 23.8877 460.521 24 460.287 24C460.004 24 459.818 23.8926 459.73 23.6777C459.652 23.4531 459.613 23.1895 459.613 22.8867V8.22363C459.613 8.07715 459.623 7.96973 459.643 7.90137C459.672 7.82324 459.716 7.76953 459.774 7.74023C459.833 7.71094 459.906 7.69629 459.994 7.69629C460.092 7.68652 460.214 7.68164 460.36 7.68164H465.224C466.112 7.68164 466.947 7.70605 467.729 7.75488C468.52 7.80371 469.247 7.90625 469.911 8.0625C470.575 8.20898 471.171 8.41406 471.698 8.67773C472.226 8.94141 472.67 9.29297 473.031 9.73242C473.402 10.1621 473.686 10.6846 473.881 11.2998C474.076 11.915 474.174 12.6475 474.174 13.4971ZM472.929 13.4971C472.929 12.4814 472.772 11.6562 472.46 11.0215C472.157 10.3867 471.688 9.89355 471.054 9.54199C470.429 9.19043 469.633 8.95605 468.666 8.83887C467.699 8.71191 466.552 8.64844 465.224 8.64844H460.858V17.9941H465.224C466.552 17.9941 467.699 17.9551 468.666 17.877C469.643 17.7891 470.443 17.5938 471.068 17.291C471.703 16.9785 472.172 16.5244 472.475 15.9287C472.777 15.333 472.929 14.5225 472.929 13.4971ZM509.081 8.22363C509.081 8.41895 509.013 8.54102 508.876 8.58984C508.739 8.62891 508.563 8.64844 508.349 8.64844H500.16V22.916C500.16 23.0625 500.155 23.1992 500.146 23.3262C500.136 23.4531 500.106 23.5703 500.058 23.6777C500.019 23.7754 499.96 23.8535 499.882 23.9121C499.804 23.9707 499.691 24 499.545 24C499.291 24 499.12 23.8926 499.032 23.6777C498.954 23.4531 498.915 23.1992 498.915 22.916V8.64844H490.712C490.497 8.64844 490.312 8.62891 490.155 8.58984C490.009 8.54102 489.936 8.41895 489.936 8.22363C489.936 8.07715 489.97 7.96973 490.038 7.90137C490.106 7.82324 490.189 7.76953 490.287 7.74023C490.395 7.71094 490.512 7.69629 490.639 7.69629C490.775 7.68652 490.902 7.68164 491.02 7.68164H508.026C508.173 7.68164 508.31 7.68652 508.437 7.69629C508.563 7.69629 508.671 7.71094 508.759 7.74023C508.856 7.76953 508.935 7.82324 508.993 7.90137C509.052 7.96973 509.081 8.07715 509.081 8.22363ZM541.747 23.4873C541.747 23.6338 541.723 23.7412 541.674 23.8096C541.625 23.8779 541.557 23.9268 541.469 23.9561C541.391 23.9854 541.293 24 541.176 24C541.059 24 540.927 24 540.78 24H527.099C527.001 24 526.928 23.9951 526.879 23.9854C526.83 23.9756 526.791 23.9512 526.762 23.9121C526.742 23.873 526.728 23.8242 526.718 23.7656C526.718 23.6973 526.718 23.6045 526.718 23.4873V8.37012C526.718 8.22363 526.718 8.10645 526.718 8.01855C526.728 7.93066 526.747 7.8623 526.776 7.81348C526.806 7.76465 526.854 7.73047 526.923 7.71094C527.001 7.69141 527.113 7.68164 527.26 7.68164H540.634C540.78 7.68164 540.917 7.68164 541.044 7.68164C541.171 7.68164 541.283 7.69629 541.381 7.72559C541.488 7.75488 541.571 7.80371 541.63 7.87207C541.688 7.94043 541.718 8.04785 541.718 8.19434C541.718 8.31152 541.688 8.4043 541.63 8.47266C541.571 8.53125 541.488 8.5752 541.381 8.60449C541.283 8.63379 541.171 8.64844 541.044 8.64844C540.917 8.64844 540.78 8.64844 540.634 8.64844H527.963V15.0645H540.561C540.775 15.0645 540.956 15.0938 541.103 15.1523C541.249 15.2109 541.322 15.3379 541.322 15.5332C541.322 15.748 541.259 15.8896 541.132 15.958C541.015 16.0264 540.858 16.0605 540.663 16.0605H527.963V23.0332H540.663C540.81 23.0332 540.946 23.0332 541.073 23.0332C541.2 23.0332 541.312 23.0479 541.41 23.0771C541.518 23.1064 541.601 23.1553 541.659 23.2236C541.718 23.2822 541.747 23.3701 541.747 23.4873ZM575.146 12.75C575.146 13.3457 575.058 13.8682 574.882 14.3174C574.706 14.7666 574.467 15.1572 574.164 15.4893C573.871 15.8213 573.52 16.0996 573.109 16.3242C572.709 16.5488 572.279 16.7344 571.82 16.8809C571.361 17.0176 570.883 17.1201 570.385 17.1885C569.896 17.2568 569.418 17.3008 568.949 17.3203L574.34 22.9893C574.428 23.0771 574.486 23.1699 574.516 23.2676C574.555 23.3555 574.579 23.4385 574.589 23.5166C574.589 23.6533 574.54 23.7705 574.442 23.8682C574.354 23.9561 574.237 24 574.091 24C573.983 24 573.866 23.9756 573.739 23.9268C573.622 23.8779 573.505 23.7852 573.388 23.6484L567.514 17.3789H562.035V22.8867C562.035 23.0332 562.025 23.1748 562.006 23.3115C561.996 23.4385 561.972 23.5557 561.933 23.6631C561.894 23.7607 561.835 23.8438 561.757 23.9121C561.688 23.9707 561.596 24 561.479 24C561.195 24 561.01 23.8926 560.922 23.6777C560.834 23.4531 560.79 23.1895 560.79 22.8867V8.22363C560.79 8.07715 560.79 7.96973 560.79 7.90137C560.8 7.82324 560.819 7.76953 560.849 7.74023C560.878 7.71094 560.927 7.69629 560.995 7.69629C561.073 7.68652 561.186 7.68164 561.332 7.68164H565.58C566.488 7.68164 567.353 7.69141 568.173 7.71094C569.003 7.73047 569.77 7.79395 570.473 7.90137C571.186 7.99902 571.83 8.15527 572.406 8.37012C572.982 8.5752 573.471 8.86816 573.871 9.24902C574.281 9.62012 574.594 10.0889 574.809 10.6553C575.033 11.2217 575.146 11.9199 575.146 12.75ZM573.9 12.75C573.9 11.7832 573.72 11.0264 573.358 10.4795C573.007 9.92285 572.479 9.5127 571.776 9.24902C571.073 8.97559 570.204 8.80957 569.169 8.75098C568.134 8.68262 566.938 8.64844 565.58 8.64844H562.035V16.4121H567.528C568.378 16.4121 569.188 16.373 569.96 16.2949C570.731 16.2168 571.405 16.0508 571.981 15.7969C572.567 15.5332 573.031 15.1621 573.373 14.6836C573.725 14.2051 573.9 13.5605 573.9 12.75ZM593.778 15.7822C593.778 15.499 593.861 15.2695 594.027 15.0938C594.203 14.918 594.433 14.8301 594.716 14.8301C594.979 14.8301 595.204 14.918 595.39 15.0938C595.585 15.2695 595.683 15.499 595.683 15.7822C595.683 16.0557 595.585 16.2754 595.39 16.4414C595.204 16.6074 594.979 16.6904 594.716 16.6904C594.433 16.6904 594.203 16.6074 594.027 16.4414C593.861 16.2754 593.778 16.0557 593.778 15.7822ZM593.778 21.0117C593.778 20.7285 593.861 20.499 594.027 20.3232C594.203 20.1475 594.433 20.0596 594.716 20.0596C594.979 20.0596 595.204 20.1475 595.39 20.3232C595.585 20.499 595.683 20.7285 595.683 21.0117C595.683 21.2852 595.585 21.5049 595.39 21.6709C595.204 21.8369 594.979 21.9199 594.716 21.9199C594.433 21.9199 594.203 21.8369 594.027 21.6709C593.861 21.5049 593.778 21.2852 593.778 21.0117Z" fill="white"/>
<path d="M33.6 118.28C29.0667 118.28 24.88 117.587 21.04 116.2C17.2533 114.76 13.9467 112.733 11.12 110.12C8.34667 107.507 6.18667 104.413 4.64 100.84C3.09333 97.2667 2.32 93.32 2.32 89C2.32 84.68 3.09333 80.7333 4.64 77.16C6.18667 73.5867 8.37333 70.4933 11.2 67.88C14.0267 65.2667 17.36 63.2667 21.2 61.88C25.0933 60.44 29.36 59.72 34 59.72C39.5467 59.72 44.48 60.6533 48.8 62.52C53.1733 64.3867 56.7733 67.0533 59.6 70.52L47.52 81.16C45.76 79.1333 43.84 77.6133 41.76 76.6C39.7333 75.5333 37.4667 75 34.96 75C32.88 75 30.9867 75.32 29.28 75.96C27.6267 76.6 26.2133 77.5333 25.04 78.76C23.8667 79.9867 22.96 81.4533 22.32 83.16C21.68 84.8667 21.36 86.8133 21.36 89C21.36 91.08 21.68 93 22.32 94.76C22.96 96.4667 23.8667 97.9333 25.04 99.16C26.2133 100.387 27.6 101.347 29.2 102.04C30.8533 102.68 32.6933 103 34.72 103C36.8533 103 38.9333 102.653 40.96 101.96C42.9867 101.213 45.1467 99.96 47.44 98.2L58 111.16C54.5867 113.453 50.6933 115.213 46.32 116.44C41.9467 117.667 37.7067 118.28 33.6 118.28ZM41.6 108.76V87.48H58V111.16L41.6 108.76ZM74.0444 117V61H101.004C106.231 61 110.738 61.8533 114.524 63.56C118.364 65.2667 121.324 67.72 123.404 70.92C125.484 74.0667 126.524 77.8 126.524 82.12C126.524 86.44 125.484 90.1733 123.404 93.32C121.324 96.4133 118.364 98.7867 114.524 100.44C110.738 102.093 106.231 102.92 101.004 102.92H84.5244L92.9244 95.16V117H74.0444ZM107.564 117L93.8044 96.6H113.804L127.724 117H107.564ZM92.9244 97.24L84.5244 88.68H99.8044C102.418 88.68 104.338 88.0933 105.564 86.92C106.844 85.7467 107.484 84.1467 107.484 82.12C107.484 80.0933 106.844 78.4933 105.564 77.32C104.338 76.1467 102.418 75.56 99.8044 75.56H84.5244L92.9244 67V97.24ZM135.574 117L160.054 61H178.614L203.094 117H183.574L165.494 69.96H172.854L154.774 117H135.574ZM150.134 107.24L154.934 93.64H180.694L185.494 107.24H150.134ZM214.107 117V61H241.707C247.947 61 253.44 62.1467 258.187 64.44C262.934 66.68 266.64 69.88 269.307 74.04C271.974 78.2 273.307 83.16 273.307 88.92C273.307 94.7333 271.974 99.7467 269.307 103.96C266.64 108.12 262.934 111.347 258.187 113.64C253.44 115.88 247.947 117 241.707 117H214.107ZM232.987 102.28H240.907C243.574 102.28 245.894 101.773 247.867 100.76C249.894 99.7467 251.467 98.2533 252.587 96.28C253.707 94.2533 254.267 91.8 254.267 88.92C254.267 86.0933 253.707 83.6933 252.587 81.72C251.467 79.7467 249.894 78.2533 247.867 77.24C245.894 76.2267 243.574 75.72 240.907 75.72H232.987V102.28ZM315.001 118.28C306.414 118.28 299.721 115.96 294.921 111.32C290.121 106.68 287.721 100.173 287.721 91.8V61H306.601V91.24C306.601 95.5067 307.374 98.5467 308.921 100.36C310.467 102.12 312.547 103 315.161 103C317.827 103 319.907 102.12 321.401 100.36C322.947 98.5467 323.721 95.5067 323.721 91.24V61H342.281V91.8C342.281 100.173 339.881 106.68 335.081 111.32C330.281 115.96 323.587 118.28 315.001 118.28ZM351.683 117L376.163 61H394.723L419.203 117H399.683L381.603 69.96H388.963L370.883 117H351.683ZM366.243 107.24L371.043 93.64H396.803L401.603 107.24H366.243ZM439.564 117V75.64H423.164V61H474.844V75.64H458.444V117H439.564ZM487.748 117V61H506.628V117H487.748ZM553.076 118.28C548.543 118.28 544.33 117.56 540.436 116.12C536.596 114.68 533.263 112.653 530.436 110.04C527.61 107.373 525.396 104.253 523.796 100.68C522.25 97.1067 521.476 93.2133 521.476 89C521.476 84.7333 522.25 80.84 523.796 77.32C525.396 73.7467 527.61 70.6533 530.436 68.04C533.263 65.3733 536.596 63.32 540.436 61.88C544.33 60.44 548.543 59.72 553.076 59.72C557.663 59.72 561.876 60.44 565.716 61.88C569.556 63.32 572.89 65.3733 575.716 68.04C578.543 70.6533 580.73 73.7467 582.276 77.32C583.876 80.84 584.676 84.7333 584.676 89C584.676 93.2133 583.876 97.1067 582.276 100.68C580.73 104.253 578.543 107.373 575.716 110.04C572.89 112.653 569.556 114.68 565.716 116.12C561.876 117.56 557.663 118.28 553.076 118.28ZM553.076 103C554.836 103 556.463 102.68 557.956 102.04C559.503 101.4 560.836 100.493 561.956 99.32C563.13 98.0933 564.036 96.6267 564.676 94.92C565.316 93.16 565.636 91.1867 565.636 89C565.636 86.8133 565.316 84.8667 564.676 83.16C564.036 81.4 563.13 79.9333 561.956 78.76C560.836 77.5333 559.503 76.6 557.956 75.96C556.463 75.32 554.836 75 553.076 75C551.316 75 549.663 75.32 548.116 75.96C546.623 76.6 545.29 77.5333 544.116 78.76C542.996 79.9333 542.116 81.4 541.476 83.16C540.836 84.8667 540.516 86.8133 540.516 89C540.516 91.1867 540.836 93.16 541.476 94.92C542.116 96.6267 542.996 98.0933 544.116 99.32C545.29 100.493 546.623 101.4 548.116 102.04C549.663 102.68 551.316 103 553.076 103ZM599.529 117V61H615.049L643.529 95.08H636.329V61H654.729V117H639.209L610.729 82.92H617.929V117H599.529Z" fill="white"/>
</svg>
