<svg width="714" height="137" viewBox="0 0 714 137" fill="none" xmlns="http://www.w3.org/2000/svg">
<path d="M62.9639 15.8408C62.9639 14.3174 63.1934 13.0234 63.6523 11.959C64.1211 10.8848 64.8145 10.0107 65.7324 9.33691C66.6504 8.65332 67.793 8.15527 69.1602 7.84277C70.5371 7.53027 72.1338 7.37402 73.9502 7.37402C75.2197 7.37402 76.4502 7.49121 77.6416 7.72559C78.833 7.9502 80.0439 8.31641 81.2744 8.82422C81.4307 8.89258 81.543 8.98047 81.6113 9.08789C81.6797 9.18555 81.7139 9.2832 81.7139 9.38086C81.7139 9.49805 81.6699 9.60059 81.582 9.68848C81.4941 9.77637 81.3818 9.82031 81.2451 9.82031C81.2061 9.82031 81.1133 9.7959 80.9668 9.74707C79.8438 9.27832 78.6816 8.92676 77.4805 8.69238C76.2793 8.45801 75.1025 8.34082 73.9502 8.34082C72.2119 8.34082 70.7275 8.4873 69.4971 8.78027C68.2666 9.06348 67.2559 9.5127 66.4648 10.1279C65.6836 10.7334 65.1123 11.5098 64.751 12.457C64.3896 13.3945 64.209 14.5225 64.209 15.8408C64.209 17.1592 64.3896 18.292 64.751 19.2393C65.1123 20.1768 65.6836 20.9531 66.4648 21.5684C67.2559 22.1738 68.2666 22.623 69.4971 22.916C70.7275 23.1992 72.2119 23.3408 73.9502 23.3408C75.1025 23.3408 76.2793 23.2236 77.4805 22.9893C78.6816 22.7549 79.8438 22.4033 80.9668 21.9346C81.0449 21.8955 81.1328 21.876 81.2305 21.876C81.377 21.876 81.4941 21.9199 81.582 22.0078C81.6797 22.0957 81.7285 22.1982 81.7285 22.3154C81.7285 22.4131 81.6943 22.5107 81.626 22.6084C81.5576 22.7061 81.4404 22.7891 81.2744 22.8574C80.0342 23.3652 78.8184 23.7363 77.627 23.9707C76.4453 24.1953 75.2197 24.3076 73.9502 24.3076C72.1338 24.3076 70.5371 24.1514 69.1602 23.8389C67.793 23.5264 66.6504 23.0332 65.7324 22.3594C64.8145 21.6758 64.1211 20.8018 63.6523 19.7373C63.1934 18.6631 62.9639 17.3643 62.9639 15.8408ZM121.074 15.8408C121.074 17.2666 120.859 18.5117 120.43 19.5762C120.01 20.6309 119.355 21.5098 118.467 22.2129C117.588 22.916 116.47 23.4434 115.112 23.7949C113.765 24.1367 112.163 24.3076 110.308 24.3076C108.452 24.3076 106.846 24.1367 105.488 23.7949C104.141 23.4434 103.027 22.916 102.148 22.2129C101.27 21.5098 100.615 20.6309 100.186 19.5762C99.7656 18.5117 99.5557 17.2666 99.5557 15.8408C99.5557 14.415 99.7656 13.1748 100.186 12.1201C100.615 11.0557 101.27 10.1719 102.148 9.46875C103.027 8.76562 104.141 8.24316 105.488 7.90137C106.846 7.5498 108.452 7.37402 110.308 7.37402C112.163 7.37402 113.765 7.5498 115.112 7.90137C116.47 8.24316 117.588 8.76562 118.467 9.46875C119.355 10.1719 120.01 11.0557 120.43 12.1201C120.859 13.1748 121.074 14.415 121.074 15.8408ZM100.801 15.8408C100.801 17.208 100.996 18.3652 101.387 19.3125C101.777 20.2598 102.363 21.0361 103.145 21.6416C103.936 22.2373 104.927 22.6719 106.118 22.9453C107.31 23.209 108.706 23.3408 110.308 23.3408C111.909 23.3408 113.306 23.209 114.497 22.9453C115.688 22.6719 116.68 22.2373 117.471 21.6416C118.262 21.0361 118.853 20.2598 119.243 19.3125C119.634 18.3652 119.829 17.208 119.829 15.8408C119.829 14.4834 119.634 13.3311 119.243 12.3838C118.853 11.4268 118.262 10.6504 117.471 10.0547C116.68 9.44922 115.688 9.01465 114.497 8.75098C113.306 8.47754 111.909 8.34082 110.308 8.34082C108.706 8.34082 107.31 8.47754 106.118 8.75098C104.927 9.01465 103.936 9.44922 103.145 10.0547C102.363 10.6504 101.777 11.4268 101.387 12.3838C100.996 13.3311 100.801 14.4834 100.801 15.8408ZM150.84 21.9639L159.922 8.31152C160.068 8.08691 160.215 7.92578 160.361 7.82812C160.518 7.73047 160.669 7.68164 160.815 7.68164C161.001 7.68164 161.152 7.75977 161.27 7.91602C161.396 8.0625 161.46 8.24805 161.46 8.47266V22.9746C161.46 23.2578 161.426 23.502 161.357 23.707C161.289 23.9023 161.113 24 160.83 24C160.586 24 160.42 23.9023 160.332 23.707C160.254 23.502 160.215 23.2578 160.215 22.9746V9.9668L151.558 22.7402C151.323 23.0723 151.084 23.2383 150.84 23.2383C150.576 23.2383 150.337 23.0723 150.122 22.7402L141.465 9.9668V22.9746C141.465 23.2578 141.421 23.502 141.333 23.707C141.255 23.9023 141.094 24 140.85 24C140.566 24 140.391 23.9023 140.322 23.707C140.254 23.502 140.22 23.2578 140.22 22.9746V8.47266C140.22 8.24805 140.278 8.0625 140.396 7.91602C140.522 7.75977 140.679 7.68164 140.864 7.68164C141.001 7.68164 141.143 7.73047 141.289 7.82812C141.445 7.92578 141.602 8.08691 141.758 8.31152L150.84 21.9639ZM195.693 13.4971C195.693 14.3857 195.581 15.1377 195.356 15.7529C195.142 16.3584 194.839 16.8613 194.448 17.2617C194.058 17.6621 193.584 17.9746 193.027 18.1992C192.48 18.4141 191.875 18.5752 191.211 18.6826C190.547 18.79 189.834 18.8535 189.072 18.873C188.32 18.8926 187.544 18.9023 186.743 18.9023H182.378V22.8867C182.378 23.1699 182.339 23.4287 182.261 23.6631C182.192 23.8877 182.041 24 181.807 24C181.523 24 181.338 23.8926 181.25 23.6777C181.172 23.4531 181.133 23.1895 181.133 22.8867V8.22363C181.133 8.07715 181.143 7.96973 181.162 7.90137C181.191 7.82324 181.235 7.76953 181.294 7.74023C181.353 7.71094 181.426 7.69629 181.514 7.69629C181.611 7.68652 181.733 7.68164 181.88 7.68164H186.743C187.632 7.68164 188.467 7.70605 189.248 7.75488C190.039 7.80371 190.767 7.90625 191.431 8.0625C192.095 8.20898 192.69 8.41406 193.218 8.67773C193.745 8.94141 194.189 9.29297 194.551 9.73242C194.922 10.1621 195.205 10.6846 195.4 11.2998C195.596 11.915 195.693 12.6475 195.693 13.4971ZM194.448 13.4971C194.448 12.4814 194.292 11.6562 193.979 11.0215C193.677 10.3867 193.208 9.89355 192.573 9.54199C191.948 9.19043 191.152 8.95605 190.186 8.83887C189.219 8.71191 188.071 8.64844 186.743 8.64844H182.378V17.9941H186.743C188.071 17.9941 189.219 17.9551 190.186 17.877C191.162 17.7891 191.963 17.5938 192.588 17.291C193.223 16.9785 193.691 16.5244 193.994 15.9287C194.297 15.333 194.448 14.5225 194.448 13.4971ZM214.136 24C213.989 24 213.872 23.9951 213.784 23.9854C213.706 23.9756 213.647 23.9561 213.608 23.9268C213.569 23.8877 213.545 23.834 213.535 23.7656C213.535 23.6875 213.535 23.585 213.535 23.458V8.63379C213.535 8.37988 213.579 8.16016 213.667 7.97461C213.755 7.7793 213.94 7.68164 214.224 7.68164C214.458 7.68164 214.609 7.78418 214.678 7.98926C214.746 8.18457 214.78 8.39941 214.78 8.63379V23.0332H227.363C227.559 23.0332 227.705 23.0869 227.803 23.1943C227.91 23.292 227.964 23.3994 227.964 23.5166C227.964 23.6436 227.91 23.7559 227.803 23.8535C227.705 23.9512 227.559 24 227.363 24H214.136ZM260.366 23.4873C260.366 23.6338 260.342 23.7412 260.293 23.8096C260.244 23.8779 260.176 23.9268 260.088 23.9561C260.01 23.9854 259.912 24 259.795 24C259.678 24 259.546 24 259.399 24H245.718C245.62 24 245.547 23.9951 245.498 23.9854C245.449 23.9756 245.41 23.9512 245.381 23.9121C245.361 23.873 245.347 23.8242 245.337 23.7656C245.337 23.6973 245.337 23.6045 245.337 23.4873V8.37012C245.337 8.22363 245.337 8.10645 245.337 8.01855C245.347 7.93066 245.366 7.8623 245.396 7.81348C245.425 7.76465 245.474 7.73047 245.542 7.71094C245.62 7.69141 245.732 7.68164 245.879 7.68164H259.253C259.399 7.68164 259.536 7.68164 259.663 7.68164C259.79 7.68164 259.902 7.69629 260 7.72559C260.107 7.75488 260.19 7.80371 260.249 7.87207C260.308 7.94043 260.337 8.04785 260.337 8.19434C260.337 8.31152 260.308 8.4043 260.249 8.47266C260.19 8.53125 260.107 8.5752 260 8.60449C259.902 8.63379 259.79 8.64844 259.663 8.64844C259.536 8.64844 259.399 8.64844 259.253 8.64844H246.582V15.0645H259.18C259.395 15.0645 259.575 15.0938 259.722 15.1523C259.868 15.2109 259.941 15.3379 259.941 15.5332C259.941 15.748 259.878 15.8896 259.751 15.958C259.634 16.0264 259.478 16.0605 259.282 16.0605H246.582V23.0332H259.282C259.429 23.0332 259.565 23.0332 259.692 23.0332C259.819 23.0332 259.932 23.0479 260.029 23.0771C260.137 23.1064 260.22 23.1553 260.278 23.2236C260.337 23.2822 260.366 23.3701 260.366 23.4873ZM296.226 8.22363C296.226 8.41895 296.157 8.54102 296.021 8.58984C295.884 8.62891 295.708 8.64844 295.493 8.64844H287.305V22.916C287.305 23.0625 287.3 23.1992 287.29 23.3262C287.28 23.4531 287.251 23.5703 287.202 23.6777C287.163 23.7754 287.104 23.8535 287.026 23.9121C286.948 23.9707 286.836 24 286.689 24C286.436 24 286.265 23.8926 286.177 23.6777C286.099 23.4531 286.06 23.1992 286.06 22.916V8.64844H277.856C277.642 8.64844 277.456 8.62891 277.3 8.58984C277.153 8.54102 277.08 8.41895 277.08 8.22363C277.08 8.07715 277.114 7.96973 277.183 7.90137C277.251 7.82324 277.334 7.76953 277.432 7.74023C277.539 7.71094 277.656 7.69629 277.783 7.69629C277.92 7.68652 278.047 7.68164 278.164 7.68164H295.171C295.317 7.68164 295.454 7.68652 295.581 7.69629C295.708 7.69629 295.815 7.71094 295.903 7.74023C296.001 7.76953 296.079 7.82324 296.138 7.90137C296.196 7.96973 296.226 8.07715 296.226 8.22363ZM328.892 23.4873C328.892 23.6338 328.867 23.7412 328.818 23.8096C328.77 23.8779 328.701 23.9268 328.613 23.9561C328.535 23.9854 328.438 24 328.32 24C328.203 24 328.071 24 327.925 24H314.243C314.146 24 314.072 23.9951 314.023 23.9854C313.975 23.9756 313.936 23.9512 313.906 23.9121C313.887 23.873 313.872 23.8242 313.862 23.7656C313.862 23.6973 313.862 23.6045 313.862 23.4873V8.37012C313.862 8.22363 313.862 8.10645 313.862 8.01855C313.872 7.93066 313.892 7.8623 313.921 7.81348C313.95 7.76465 313.999 7.73047 314.067 7.71094C314.146 7.69141 314.258 7.68164 314.404 7.68164H327.778C327.925 7.68164 328.062 7.68164 328.188 7.68164C328.315 7.68164 328.428 7.69629 328.525 7.72559C328.633 7.75488 328.716 7.80371 328.774 7.87207C328.833 7.94043 328.862 8.04785 328.862 8.19434C328.862 8.31152 328.833 8.4043 328.774 8.47266C328.716 8.53125 328.633 8.5752 328.525 8.60449C328.428 8.63379 328.315 8.64844 328.188 8.64844C328.062 8.64844 327.925 8.64844 327.778 8.64844H315.107V15.0645H327.705C327.92 15.0645 328.101 15.0938 328.247 15.1523C328.394 15.2109 328.467 15.3379 328.467 15.5332C328.467 15.748 328.403 15.8896 328.276 15.958C328.159 16.0264 328.003 16.0605 327.808 16.0605H315.107V23.0332H327.808C327.954 23.0332 328.091 23.0332 328.218 23.0332C328.345 23.0332 328.457 23.0479 328.555 23.0771C328.662 23.1064 328.745 23.1553 328.804 23.2236C328.862 23.2822 328.892 23.3701 328.892 23.4873ZM368.237 15.8115C368.237 17.374 368.032 18.6777 367.622 19.7227C367.212 20.7676 366.602 21.6074 365.791 22.2422C364.98 22.877 363.97 23.3311 362.759 23.6045C361.558 23.8682 360.161 24 358.569 24H348.491C348.345 24 348.232 24 348.154 24C348.086 23.9902 348.032 23.9707 347.993 23.9414C347.954 23.9023 347.93 23.8486 347.92 23.7803C347.92 23.7119 347.92 23.6143 347.92 23.4873V8.22363C347.92 8.07715 347.92 7.96973 347.92 7.90137C347.93 7.82324 347.954 7.76953 347.993 7.74023C348.032 7.71094 348.091 7.69629 348.169 7.69629C348.257 7.68652 348.374 7.68164 348.521 7.68164H358.569C360.161 7.68164 361.558 7.81836 362.759 8.0918C363.97 8.36523 364.98 8.82422 365.791 9.46875C366.602 10.1035 367.212 10.9385 367.622 11.9736C368.032 13.0088 368.237 14.2881 368.237 15.8115ZM366.992 15.8115C366.992 14.5518 366.851 13.4727 366.567 12.5742C366.284 11.666 365.815 10.9238 365.161 10.3477C364.507 9.76172 363.643 9.33203 362.568 9.05859C361.494 8.78516 360.161 8.64844 358.569 8.64844H349.165V23.0332H358.569C360.161 23.0332 361.494 22.8965 362.568 22.623C363.643 22.3496 364.507 21.9248 365.161 21.3486C365.815 20.7627 366.284 20.0156 366.567 19.1074C366.851 18.1895 366.992 17.0908 366.992 15.8115ZM408.579 15.8408C408.579 14.3174 408.809 13.0234 409.268 11.959C409.736 10.8848 410.43 10.0107 411.348 9.33691C412.266 8.65332 413.408 8.15527 414.775 7.84277C416.152 7.53027 417.749 7.37402 419.565 7.37402C420.835 7.37402 422.065 7.49121 423.257 7.72559C424.448 7.9502 425.659 8.31641 426.89 8.82422C427.046 8.89258 427.158 8.98047 427.227 9.08789C427.295 9.18555 427.329 9.2832 427.329 9.38086C427.329 9.49805 427.285 9.60059 427.197 9.68848C427.109 9.77637 426.997 9.82031 426.86 9.82031C426.821 9.82031 426.729 9.7959 426.582 9.74707C425.459 9.27832 424.297 8.92676 423.096 8.69238C421.895 8.45801 420.718 8.34082 419.565 8.34082C417.827 8.34082 416.343 8.4873 415.112 8.78027C413.882 9.06348 412.871 9.5127 412.08 10.1279C411.299 10.7334 410.728 11.5098 410.366 12.457C410.005 13.3945 409.824 14.5225 409.824 15.8408C409.824 17.1592 410.005 18.292 410.366 19.2393C410.728 20.1768 411.299 20.9531 412.08 21.5684C412.871 22.1738 413.882 22.623 415.112 22.916C416.343 23.1992 417.827 23.3408 419.565 23.3408C420.718 23.3408 421.895 23.2236 423.096 22.9893C424.297 22.7549 425.459 22.4033 426.582 21.9346C426.66 21.8955 426.748 21.876 426.846 21.876C426.992 21.876 427.109 21.9199 427.197 22.0078C427.295 22.0957 427.344 22.1982 427.344 22.3154C427.344 22.4131 427.31 22.5107 427.241 22.6084C427.173 22.7061 427.056 22.7891 426.89 22.8574C425.649 23.3652 424.434 23.7363 423.242 23.9707C422.061 24.1953 420.835 24.3076 419.565 24.3076C417.749 24.3076 416.152 24.1514 414.775 23.8389C413.408 23.5264 412.266 23.0332 411.348 22.3594C410.43 21.6758 409.736 20.8018 409.268 19.7373C408.809 18.6631 408.579 17.3643 408.579 15.8408ZM445.933 8.70703C445.933 8.58008 445.938 8.45801 445.947 8.34082C445.967 8.21387 446.001 8.10156 446.05 8.00391C446.108 7.90625 446.182 7.82812 446.27 7.76953C446.367 7.71094 446.489 7.68164 446.636 7.68164C446.743 7.68164 446.831 7.71582 446.899 7.78418C446.968 7.84277 447.021 7.9209 447.061 8.01855C447.109 8.11621 447.139 8.22852 447.148 8.35547C447.168 8.47266 447.178 8.58984 447.178 8.70703V15.123H460.142V8.70703C460.142 8.58008 460.146 8.45801 460.156 8.34082C460.166 8.21387 460.19 8.10156 460.229 8.00391C460.278 7.90625 460.342 7.82812 460.42 7.76953C460.498 7.71094 460.61 7.68164 460.757 7.68164C460.903 7.68164 461.016 7.71094 461.094 7.76953C461.182 7.82812 461.245 7.90625 461.284 8.00391C461.333 8.10156 461.362 8.21387 461.372 8.34082C461.382 8.45801 461.387 8.58008 461.387 8.70703V22.9746C461.387 23.1016 461.382 23.2285 461.372 23.3555C461.362 23.4727 461.333 23.5801 461.284 23.6777C461.245 23.7754 461.187 23.8535 461.108 23.9121C461.03 23.9707 460.918 24 460.771 24C460.625 24 460.508 23.9707 460.42 23.9121C460.342 23.8535 460.278 23.7754 460.229 23.6777C460.19 23.5801 460.166 23.4727 460.156 23.3555C460.146 23.2285 460.142 23.1016 460.142 22.9746V16.0312H447.178V22.9746C447.178 23.0918 447.168 23.2139 447.148 23.3408C447.129 23.458 447.095 23.5654 447.046 23.6631C447.007 23.7607 446.948 23.8438 446.87 23.9121C446.802 23.9707 446.714 24 446.606 24C446.46 24 446.338 23.9707 446.24 23.9121C446.152 23.8535 446.084 23.7754 446.035 23.6777C445.996 23.5801 445.967 23.4727 445.947 23.3555C445.938 23.2285 445.933 23.1016 445.933 22.9746V8.70703ZM487.842 8.42871C487.998 8.14551 488.12 7.9502 488.208 7.84277C488.296 7.73535 488.428 7.68164 488.604 7.68164C488.74 7.68164 488.857 7.73535 488.955 7.84277C489.062 7.94043 489.199 8.13574 489.365 8.42871L497.451 23.0186C497.559 23.2139 497.612 23.4043 497.612 23.5898C497.612 23.7656 497.563 23.9023 497.466 24C497.368 24.0977 497.251 24.1465 497.114 24.1465C496.978 24.1465 496.841 24.0977 496.704 24C496.577 23.9121 496.445 23.7461 496.309 23.502L493.818 18.9902H483.389L480.869 23.5605C480.762 23.7656 480.635 23.9121 480.488 24C480.352 24.0977 480.215 24.1465 480.078 24.1465C479.912 24.1465 479.79 24.0879 479.712 23.9707C479.634 23.8535 479.595 23.6973 479.595 23.502C479.595 23.4238 479.609 23.3457 479.639 23.2676C479.678 23.1895 479.722 23.1016 479.771 23.0039L487.842 8.42871ZM493.394 18.126L488.604 9.38086L483.813 18.126H493.394ZM530.41 13.4971C530.41 14.3857 530.298 15.1377 530.073 15.7529C529.858 16.3584 529.556 16.8613 529.165 17.2617C528.774 17.6621 528.301 17.9746 527.744 18.1992C527.197 18.4141 526.592 18.5752 525.928 18.6826C525.264 18.79 524.551 18.8535 523.789 18.873C523.037 18.8926 522.261 18.9023 521.46 18.9023H517.095V22.8867C517.095 23.1699 517.056 23.4287 516.978 23.6631C516.909 23.8877 516.758 24 516.523 24C516.24 24 516.055 23.8926 515.967 23.6777C515.889 23.4531 515.85 23.1895 515.85 22.8867V8.22363C515.85 8.07715 515.859 7.96973 515.879 7.90137C515.908 7.82324 515.952 7.76953 516.011 7.74023C516.069 7.71094 516.143 7.69629 516.23 7.69629C516.328 7.68652 516.45 7.68164 516.597 7.68164H521.46C522.349 7.68164 523.184 7.70605 523.965 7.75488C524.756 7.80371 525.483 7.90625 526.147 8.0625C526.812 8.20898 527.407 8.41406 527.935 8.67773C528.462 8.94141 528.906 9.29297 529.268 9.73242C529.639 10.1621 529.922 10.6846 530.117 11.2998C530.312 11.915 530.41 12.6475 530.41 13.4971ZM529.165 13.4971C529.165 12.4814 529.009 11.6562 528.696 11.0215C528.394 10.3867 527.925 9.89355 527.29 9.54199C526.665 9.19043 525.869 8.95605 524.902 8.83887C523.936 8.71191 522.788 8.64844 521.46 8.64844H517.095V17.9941H521.46C522.788 17.9941 523.936 17.9551 524.902 17.877C525.879 17.7891 526.68 17.5938 527.305 17.291C527.939 16.9785 528.408 16.5244 528.711 15.9287C529.014 15.333 529.165 14.5225 529.165 13.4971ZM565.317 8.22363C565.317 8.41895 565.249 8.54102 565.112 8.58984C564.976 8.62891 564.8 8.64844 564.585 8.64844H556.396V22.916C556.396 23.0625 556.392 23.1992 556.382 23.3262C556.372 23.4531 556.343 23.5703 556.294 23.6777C556.255 23.7754 556.196 23.8535 556.118 23.9121C556.04 23.9707 555.928 24 555.781 24C555.527 24 555.356 23.8926 555.269 23.6777C555.19 23.4531 555.151 23.1992 555.151 22.916V8.64844H546.948C546.733 8.64844 546.548 8.62891 546.392 8.58984C546.245 8.54102 546.172 8.41895 546.172 8.22363C546.172 8.07715 546.206 7.96973 546.274 7.90137C546.343 7.82324 546.426 7.76953 546.523 7.74023C546.631 7.71094 546.748 7.69629 546.875 7.69629C547.012 7.68652 547.139 7.68164 547.256 7.68164H564.263C564.409 7.68164 564.546 7.68652 564.673 7.69629C564.8 7.69629 564.907 7.71094 564.995 7.74023C565.093 7.76953 565.171 7.82324 565.229 7.90137C565.288 7.96973 565.317 8.07715 565.317 8.22363ZM597.983 23.4873C597.983 23.6338 597.959 23.7412 597.91 23.8096C597.861 23.8779 597.793 23.9268 597.705 23.9561C597.627 23.9854 597.529 24 597.412 24C597.295 24 597.163 24 597.017 24H583.335C583.237 24 583.164 23.9951 583.115 23.9854C583.066 23.9756 583.027 23.9512 582.998 23.9121C582.979 23.873 582.964 23.8242 582.954 23.7656C582.954 23.6973 582.954 23.6045 582.954 23.4873V8.37012C582.954 8.22363 582.954 8.10645 582.954 8.01855C582.964 7.93066 582.983 7.8623 583.013 7.81348C583.042 7.76465 583.091 7.73047 583.159 7.71094C583.237 7.69141 583.35 7.68164 583.496 7.68164H596.87C597.017 7.68164 597.153 7.68164 597.28 7.68164C597.407 7.68164 597.52 7.69629 597.617 7.72559C597.725 7.75488 597.808 7.80371 597.866 7.87207C597.925 7.94043 597.954 8.04785 597.954 8.19434C597.954 8.31152 597.925 8.4043 597.866 8.47266C597.808 8.53125 597.725 8.5752 597.617 8.60449C597.52 8.63379 597.407 8.64844 597.28 8.64844C597.153 8.64844 597.017 8.64844 596.87 8.64844H584.199V15.0645H596.797C597.012 15.0645 597.192 15.0938 597.339 15.1523C597.485 15.2109 597.559 15.3379 597.559 15.5332C597.559 15.748 597.495 15.8896 597.368 15.958C597.251 16.0264 597.095 16.0605 596.899 16.0605H584.199V23.0332H596.899C597.046 23.0332 597.183 23.0332 597.31 23.0332C597.437 23.0332 597.549 23.0479 597.646 23.0771C597.754 23.1064 597.837 23.1553 597.896 23.2236C597.954 23.2822 597.983 23.3701 597.983 23.4873ZM631.382 12.75C631.382 13.3457 631.294 13.8682 631.118 14.3174C630.942 14.7666 630.703 15.1572 630.4 15.4893C630.107 15.8213 629.756 16.0996 629.346 16.3242C628.945 16.5488 628.516 16.7344 628.057 16.8809C627.598 17.0176 627.119 17.1201 626.621 17.1885C626.133 17.2568 625.654 17.3008 625.186 17.3203L630.576 22.9893C630.664 23.0771 630.723 23.1699 630.752 23.2676C630.791 23.3555 630.815 23.4385 630.825 23.5166C630.825 23.6533 630.776 23.7705 630.679 23.8682C630.591 23.9561 630.474 24 630.327 24C630.22 24 630.103 23.9756 629.976 23.9268C629.858 23.8779 629.741 23.7852 629.624 23.6484L623.75 17.3789H618.271V22.8867C618.271 23.0332 618.262 23.1748 618.242 23.3115C618.232 23.4385 618.208 23.5557 618.169 23.6631C618.13 23.7607 618.071 23.8438 617.993 23.9121C617.925 23.9707 617.832 24 617.715 24C617.432 24 617.246 23.8926 617.158 23.6777C617.07 23.4531 617.026 23.1895 617.026 22.8867V8.22363C617.026 8.07715 617.026 7.96973 617.026 7.90137C617.036 7.82324 617.056 7.76953 617.085 7.74023C617.114 7.71094 617.163 7.69629 617.231 7.69629C617.31 7.68652 617.422 7.68164 617.568 7.68164H621.816C622.725 7.68164 623.589 7.69141 624.409 7.71094C625.239 7.73047 626.006 7.79395 626.709 7.90137C627.422 7.99902 628.066 8.15527 628.643 8.37012C629.219 8.5752 629.707 8.86816 630.107 9.24902C630.518 9.62012 630.83 10.0889 631.045 10.6553C631.27 11.2217 631.382 11.9199 631.382 12.75ZM630.137 12.75C630.137 11.7832 629.956 11.0264 629.595 10.4795C629.243 9.92285 628.716 9.5127 628.013 9.24902C627.31 8.97559 626.44 8.80957 625.405 8.75098C624.37 8.68262 623.174 8.64844 621.816 8.64844H618.271V16.4121H623.765C624.614 16.4121 625.425 16.373 626.196 16.2949C626.968 16.2168 627.642 16.0508 628.218 15.7969C628.804 15.5332 629.268 15.1621 629.609 14.6836C629.961 14.2051 630.137 13.5605 630.137 12.75ZM650.015 15.7822C650.015 15.499 650.098 15.2695 650.264 15.0938C650.439 14.918 650.669 14.8301 650.952 14.8301C651.216 14.8301 651.44 14.918 651.626 15.0938C651.821 15.2695 651.919 15.499 651.919 15.7822C651.919 16.0557 651.821 16.2754 651.626 16.4414C651.44 16.6074 651.216 16.6904 650.952 16.6904C650.669 16.6904 650.439 16.6074 650.264 16.4414C650.098 16.2754 650.015 16.0557 650.015 15.7822ZM650.015 21.0117C650.015 20.7285 650.098 20.499 650.264 20.3232C650.439 20.1475 650.669 20.0596 650.952 20.0596C651.216 20.0596 651.44 20.1475 651.626 20.3232C651.821 20.499 651.919 20.7285 651.919 21.0117C651.919 21.2852 651.821 21.5049 651.626 21.6709C651.44 21.8369 651.216 21.9199 650.952 21.9199C650.669 21.9199 650.439 21.8369 650.264 21.6709C650.098 21.5049 650.015 21.2852 650.015 21.0117Z" fill="white"/>
<path d="M100.833 117.96C92.8858 117.96 86.6725 115.747 82.1925 111.32C77.7125 106.893 75.4725 100.573 75.4725 92.36V61H88.4325V91.88C88.4325 97.2133 89.5258 101.053 91.7125 103.4C93.8992 105.747 96.9658 106.92 100.913 106.92C104.859 106.92 107.926 105.747 110.113 103.4C112.299 101.053 113.392 97.2133 113.392 91.88V61H126.193V92.36C126.193 100.573 123.953 106.893 119.473 111.32C114.993 115.747 108.779 117.96 100.833 117.96ZM146.999 117V61H157.719L190.759 101.32H185.559V61H198.359V117H187.719L154.599 76.68H159.799V117H146.999ZM219.609 117V61H232.569V117H219.609ZM270.424 117L246.264 61H260.264L281.384 110.6H273.144L294.584 61H307.464L283.224 117H270.424ZM332.06 83.56H359.02V93.64H332.06V83.56ZM333.02 106.6H363.5V117H320.14V61H362.46V71.4H333.02V106.6ZM381.812 117V61H406.052C411.065 61 415.385 61.8267 419.012 63.48C422.639 65.08 425.439 67.4 427.412 70.44C429.385 73.48 430.372 77.1067 430.372 81.32C430.372 85.48 429.385 89.08 427.412 92.12C425.439 95.1067 422.639 97.4 419.012 99C415.385 100.6 411.065 101.4 406.052 101.4H389.012L394.772 95.72V117H381.812ZM417.412 117L403.412 96.68H417.252L431.412 117H417.412ZM394.772 97.16L389.012 91.08H405.332C409.332 91.08 412.319 90.2267 414.292 88.52C416.265 86.76 417.252 84.36 417.252 81.32C417.252 78.2267 416.265 75.8267 414.292 74.12C412.319 72.4133 409.332 71.56 405.332 71.56H389.012L394.772 65.4V97.16ZM467.04 117.96C462.56 117.96 458.267 117.373 454.16 116.2C450.053 114.973 446.747 113.4 444.24 111.48L448.64 101.72C451.04 103.427 453.867 104.84 457.12 105.96C460.427 107.027 463.76 107.56 467.12 107.56C469.68 107.56 471.733 107.32 473.28 106.84C474.88 106.307 476.053 105.587 476.8 104.68C477.547 103.773 477.92 102.733 477.92 101.56C477.92 100.067 477.333 98.8933 476.16 98.04C474.987 97.1333 473.44 96.4133 471.52 95.88C469.6 95.2933 467.467 94.76 465.12 94.28C462.827 93.7467 460.507 93.1067 458.16 92.36C455.867 91.6133 453.76 90.6533 451.84 89.48C449.92 88.3067 448.347 86.76 447.12 84.84C445.947 82.92 445.36 80.4667 445.36 77.48C445.36 74.28 446.213 71.3733 447.92 68.76C449.68 66.0933 452.293 63.9867 455.76 62.44C459.28 60.84 463.68 60.04 468.96 60.04C472.48 60.04 475.947 60.4667 479.36 61.32C482.773 62.12 485.787 63.3467 488.4 65L484.4 74.84C481.787 73.3467 479.173 72.2533 476.56 71.56C473.947 70.8133 471.387 70.44 468.88 70.44C466.373 70.44 464.32 70.7333 462.72 71.32C461.12 71.9067 459.973 72.68 459.28 73.64C458.587 74.5467 458.24 75.6133 458.24 76.84C458.24 78.28 458.827 79.4533 460 80.36C461.173 81.2133 462.72 81.9067 464.64 82.44C466.56 82.9733 468.667 83.5067 470.96 84.04C473.307 84.5733 475.627 85.1867 477.92 85.88C480.267 86.5733 482.4 87.5067 484.32 88.68C486.24 89.8533 487.787 91.4 488.96 93.32C490.187 95.24 490.8 97.6667 490.8 100.6C490.8 103.747 489.92 106.627 488.16 109.24C486.4 111.853 483.76 113.96 480.24 115.56C476.773 117.16 472.373 117.96 467.04 117.96ZM507.656 117V61H520.616V117H507.656ZM553.506 117V71.56H535.586V61H584.386V71.56H566.466V117H553.506ZM612.185 117V94.12L615.145 101.96L590.505 61H604.265L623.145 92.44H615.225L634.185 61H646.905L622.265 101.96L625.145 94.12V117H612.185Z" fill="white"/>
</svg>
