<svg width="1236" height="138" viewBox="0 0 1236 138" fill="none" xmlns="http://www.w3.org/2000/svg">
<path d="M225.598 8.22363C225.598 8.41895 225.529 8.54102 225.393 8.58984C225.256 8.62891 225.08 8.64844 224.865 8.64844H216.677V22.916C216.677 23.0625 216.672 23.1992 216.662 23.3262C216.652 23.4531 216.623 23.5703 216.574 23.6777C216.535 23.7754 216.477 23.8535 216.398 23.9121C216.32 23.9707 216.208 24 216.062 24C215.808 24 215.637 23.8926 215.549 23.6777C215.471 23.4531 215.432 23.1992 215.432 22.916V8.64844H207.229C207.014 8.64844 206.828 8.62891 206.672 8.58984C206.525 8.54102 206.452 8.41895 206.452 8.22363C206.452 8.07715 206.486 7.96973 206.555 7.90137C206.623 7.82324 206.706 7.76953 206.804 7.74023C206.911 7.71094 207.028 7.69629 207.155 7.69629C207.292 7.68652 207.419 7.68164 207.536 7.68164H224.543C224.689 7.68164 224.826 7.68652 224.953 7.69629C225.08 7.69629 225.188 7.71094 225.275 7.74023C225.373 7.76953 225.451 7.82324 225.51 7.90137C225.568 7.96973 225.598 8.07715 225.598 8.22363ZM243.205 8.70703C243.205 8.58008 243.21 8.45801 243.22 8.34082C243.239 8.21387 243.273 8.10156 243.322 8.00391C243.381 7.90625 243.454 7.82812 243.542 7.76953C243.64 7.71094 243.762 7.68164 243.908 7.68164C244.016 7.68164 244.104 7.71582 244.172 7.78418C244.24 7.84277 244.294 7.9209 244.333 8.01855C244.382 8.11621 244.411 8.22852 244.421 8.35547C244.44 8.47266 244.45 8.58984 244.45 8.70703V15.123H257.414V8.70703C257.414 8.58008 257.419 8.45801 257.429 8.34082C257.438 8.21387 257.463 8.10156 257.502 8.00391C257.551 7.90625 257.614 7.82812 257.692 7.76953C257.771 7.71094 257.883 7.68164 258.029 7.68164C258.176 7.68164 258.288 7.71094 258.366 7.76953C258.454 7.82812 258.518 7.90625 258.557 8.00391C258.605 8.10156 258.635 8.21387 258.645 8.34082C258.654 8.45801 258.659 8.58008 258.659 8.70703V22.9746C258.659 23.1016 258.654 23.2285 258.645 23.3555C258.635 23.4727 258.605 23.5801 258.557 23.6777C258.518 23.7754 258.459 23.8535 258.381 23.9121C258.303 23.9707 258.19 24 258.044 24C257.897 24 257.78 23.9707 257.692 23.9121C257.614 23.8535 257.551 23.7754 257.502 23.6777C257.463 23.5801 257.438 23.4727 257.429 23.3555C257.419 23.2285 257.414 23.1016 257.414 22.9746V16.0312H244.45V22.9746C244.45 23.0918 244.44 23.2139 244.421 23.3408C244.401 23.458 244.367 23.5654 244.318 23.6631C244.279 23.7607 244.221 23.8438 244.143 23.9121C244.074 23.9707 243.986 24 243.879 24C243.732 24 243.61 23.9707 243.513 23.9121C243.425 23.8535 243.356 23.7754 243.308 23.6777C243.269 23.5801 243.239 23.4727 243.22 23.3555C243.21 23.2285 243.205 23.1016 243.205 22.9746V8.70703ZM293.391 23.4873C293.391 23.6338 293.366 23.7412 293.317 23.8096C293.269 23.8779 293.2 23.9268 293.112 23.9561C293.034 23.9854 292.937 24 292.819 24C292.702 24 292.57 24 292.424 24H278.742C278.645 24 278.571 23.9951 278.522 23.9854C278.474 23.9756 278.435 23.9512 278.405 23.9121C278.386 23.873 278.371 23.8242 278.361 23.7656C278.361 23.6973 278.361 23.6045 278.361 23.4873V8.37012C278.361 8.22363 278.361 8.10645 278.361 8.01855C278.371 7.93066 278.391 7.8623 278.42 7.81348C278.449 7.76465 278.498 7.73047 278.566 7.71094C278.645 7.69141 278.757 7.68164 278.903 7.68164H292.277C292.424 7.68164 292.561 7.68164 292.688 7.68164C292.814 7.68164 292.927 7.69629 293.024 7.72559C293.132 7.75488 293.215 7.80371 293.273 7.87207C293.332 7.94043 293.361 8.04785 293.361 8.19434C293.361 8.31152 293.332 8.4043 293.273 8.47266C293.215 8.53125 293.132 8.5752 293.024 8.60449C292.927 8.63379 292.814 8.64844 292.688 8.64844C292.561 8.64844 292.424 8.64844 292.277 8.64844H279.606V15.0645H292.204C292.419 15.0645 292.6 15.0938 292.746 15.1523C292.893 15.2109 292.966 15.3379 292.966 15.5332C292.966 15.748 292.902 15.8896 292.775 15.958C292.658 16.0264 292.502 16.0605 292.307 16.0605H279.606V23.0332H292.307C292.453 23.0332 292.59 23.0332 292.717 23.0332C292.844 23.0332 292.956 23.0479 293.054 23.0771C293.161 23.1064 293.244 23.1553 293.303 23.2236C293.361 23.2822 293.391 23.3701 293.391 23.4873ZM334.758 24C334.611 24 334.494 23.9951 334.406 23.9854C334.328 23.9756 334.27 23.9561 334.23 23.9268C334.191 23.8877 334.167 23.834 334.157 23.7656C334.157 23.6875 334.157 23.585 334.157 23.458V8.63379C334.157 8.37988 334.201 8.16016 334.289 7.97461C334.377 7.7793 334.562 7.68164 334.846 7.68164C335.08 7.68164 335.231 7.78418 335.3 7.98926C335.368 8.18457 335.402 8.39941 335.402 8.63379V23.0332H347.985C348.181 23.0332 348.327 23.0869 348.425 23.1943C348.532 23.292 348.586 23.3994 348.586 23.5166C348.586 23.6436 348.532 23.7559 348.425 23.8535C348.327 23.9512 348.181 24 347.985 24H334.758ZM372.712 8.42871C372.868 8.14551 372.99 7.9502 373.078 7.84277C373.166 7.73535 373.298 7.68164 373.474 7.68164C373.61 7.68164 373.728 7.73535 373.825 7.84277C373.933 7.94043 374.069 8.13574 374.235 8.42871L382.321 23.0186C382.429 23.2139 382.482 23.4043 382.482 23.5898C382.482 23.7656 382.434 23.9023 382.336 24C382.238 24.0977 382.121 24.1465 381.984 24.1465C381.848 24.1465 381.711 24.0977 381.574 24C381.447 23.9121 381.315 23.7461 381.179 23.502L378.688 18.9902H368.259L365.739 23.5605C365.632 23.7656 365.505 23.9121 365.358 24C365.222 24.0977 365.085 24.1465 364.948 24.1465C364.782 24.1465 364.66 24.0879 364.582 23.9707C364.504 23.8535 364.465 23.6973 364.465 23.502C364.465 23.4238 364.479 23.3457 364.509 23.2676C364.548 23.1895 364.592 23.1016 364.641 23.0039L372.712 8.42871ZM378.264 18.126L373.474 9.38086L368.684 18.126H378.264ZM419.279 19.4443C419.279 20.0693 419.167 20.626 418.942 21.1143C418.718 21.5928 418.405 22.0127 418.005 22.374C417.604 22.7256 417.126 23.0283 416.569 23.2822C416.022 23.5264 415.427 23.7266 414.782 23.8828C414.138 24.0293 413.449 24.1318 412.717 24.1904C411.994 24.2588 411.262 24.293 410.52 24.293C409.475 24.293 408.435 24.2393 407.399 24.1318C406.364 24.0244 405.397 23.8926 404.499 23.7363C403.601 23.5703 402.805 23.3945 402.111 23.209C401.428 23.0234 400.91 22.8477 400.559 22.6816C400.422 22.6133 400.319 22.5303 400.251 22.4326C400.192 22.3252 400.163 22.2178 400.163 22.1104C400.163 21.9932 400.192 21.8955 400.251 21.8174C400.319 21.7295 400.417 21.6855 400.544 21.6855C400.603 21.6855 400.671 21.7002 400.749 21.7295C401.13 21.8857 401.677 22.0566 402.39 22.2422C403.103 22.4277 403.908 22.6035 404.807 22.7695C405.715 22.9258 406.677 23.0576 407.692 23.165C408.718 23.2725 409.733 23.3262 410.739 23.3262C411.716 23.3262 412.644 23.2627 413.522 23.1357C414.401 23.0088 415.173 22.7939 415.837 22.4912C416.511 22.1885 417.043 21.7881 417.434 21.29C417.834 20.792 418.034 20.1768 418.034 19.4443C418.034 18.8291 417.863 18.3262 417.521 17.9355C417.189 17.5352 416.735 17.2178 416.159 16.9834C415.583 16.7393 414.909 16.5586 414.138 16.4414C413.366 16.3145 412.546 16.2217 411.677 16.1631C410.817 16.0947 409.929 16.0459 409.011 16.0166C408.093 15.9775 407.199 15.9189 406.33 15.8408C405.471 15.7627 404.655 15.6504 403.884 15.5039C403.112 15.3574 402.438 15.1426 401.862 14.8594C401.286 14.5762 400.827 14.21 400.485 13.7607C400.153 13.3115 399.987 12.7451 399.987 12.0615C399.987 11.4365 400.104 10.8848 400.339 10.4062C400.573 9.92773 400.896 9.51758 401.306 9.17578C401.716 8.82422 402.199 8.53613 402.756 8.31152C403.322 8.07715 403.933 7.8916 404.587 7.75488C405.251 7.61816 405.944 7.52051 406.667 7.46191C407.399 7.40332 408.132 7.37402 408.864 7.37402C409.772 7.37402 410.666 7.41797 411.545 7.50586C412.424 7.58398 413.249 7.69629 414.021 7.84277C414.792 7.97949 415.485 8.13574 416.101 8.31152C416.716 8.47754 417.209 8.64844 417.58 8.82422C417.658 8.86328 417.717 8.92188 417.756 9C417.795 9.06836 417.814 9.1416 417.814 9.21973C417.814 9.35645 417.766 9.4834 417.668 9.60059C417.58 9.71777 417.453 9.77637 417.287 9.77637C417.189 9.77637 417.106 9.75684 417.038 9.71777C416.521 9.50293 415.944 9.3125 415.31 9.14648C414.685 8.9707 414.021 8.82422 413.317 8.70703C412.614 8.58984 411.887 8.50195 411.135 8.44336C410.393 8.375 409.655 8.34082 408.923 8.34082C407.907 8.34082 406.936 8.39941 406.008 8.5166C405.08 8.63379 404.26 8.83398 403.547 9.11719C402.844 9.39062 402.282 9.76172 401.862 10.2305C401.442 10.6895 401.232 11.2705 401.232 11.9736C401.232 12.5107 401.398 12.9502 401.73 13.292C402.072 13.624 402.531 13.8926 403.107 14.0977C403.684 14.3027 404.357 14.459 405.129 14.5664C405.9 14.6641 406.716 14.7422 407.575 14.8008C408.444 14.8594 409.338 14.9131 410.256 14.9619C411.174 15.001 412.062 15.0742 412.922 15.1816C413.791 15.2793 414.611 15.4209 415.383 15.6064C416.154 15.7822 416.828 16.0312 417.404 16.3535C417.98 16.6758 418.435 17.0908 418.767 17.5986C419.108 18.0967 419.279 18.7119 419.279 19.4443ZM455.021 8.22363C455.021 8.41895 454.953 8.54102 454.816 8.58984C454.68 8.62891 454.504 8.64844 454.289 8.64844H446.101V22.916C446.101 23.0625 446.096 23.1992 446.086 23.3262C446.076 23.4531 446.047 23.5703 445.998 23.6777C445.959 23.7754 445.9 23.8535 445.822 23.9121C445.744 23.9707 445.632 24 445.485 24C445.231 24 445.061 23.8926 444.973 23.6777C444.895 23.4531 444.855 23.1992 444.855 22.916V8.64844H436.652C436.438 8.64844 436.252 8.62891 436.096 8.58984C435.949 8.54102 435.876 8.41895 435.876 8.22363C435.876 8.07715 435.91 7.96973 435.979 7.90137C436.047 7.82324 436.13 7.76953 436.228 7.74023C436.335 7.71094 436.452 7.69629 436.579 7.69629C436.716 7.68652 436.843 7.68164 436.96 7.68164H453.967C454.113 7.68164 454.25 7.68652 454.377 7.69629C454.504 7.69629 454.611 7.71094 454.699 7.74023C454.797 7.76953 454.875 7.82324 454.934 7.90137C454.992 7.96973 455.021 8.07715 455.021 8.22363ZM508.942 13.4971C508.942 14.3857 508.83 15.1377 508.605 15.7529C508.391 16.3584 508.088 16.8613 507.697 17.2617C507.307 17.6621 506.833 17.9746 506.276 18.1992C505.729 18.4141 505.124 18.5752 504.46 18.6826C503.796 18.79 503.083 18.8535 502.321 18.873C501.569 18.8926 500.793 18.9023 499.992 18.9023H495.627V22.8867C495.627 23.1699 495.588 23.4287 495.51 23.6631C495.441 23.8877 495.29 24 495.056 24C494.772 24 494.587 23.8926 494.499 23.6777C494.421 23.4531 494.382 23.1895 494.382 22.8867V8.22363C494.382 8.07715 494.392 7.96973 494.411 7.90137C494.44 7.82324 494.484 7.76953 494.543 7.74023C494.602 7.71094 494.675 7.69629 494.763 7.69629C494.86 7.68652 494.982 7.68164 495.129 7.68164H499.992C500.881 7.68164 501.716 7.70605 502.497 7.75488C503.288 7.80371 504.016 7.90625 504.68 8.0625C505.344 8.20898 505.939 8.41406 506.467 8.67773C506.994 8.94141 507.438 9.29297 507.8 9.73242C508.171 10.1621 508.454 10.6846 508.649 11.2998C508.845 11.915 508.942 12.6475 508.942 13.4971ZM507.697 13.4971C507.697 12.4814 507.541 11.6562 507.229 11.0215C506.926 10.3867 506.457 9.89355 505.822 9.54199C505.197 9.19043 504.401 8.95605 503.435 8.83887C502.468 8.71191 501.32 8.64844 499.992 8.64844H495.627V17.9941H499.992C501.32 17.9941 502.468 17.9551 503.435 17.877C504.411 17.7891 505.212 17.5938 505.837 17.291C506.472 16.9785 506.94 16.5244 507.243 15.9287C507.546 15.333 507.697 14.5225 507.697 13.4971ZM526.77 8.70703C526.77 8.58008 526.774 8.45801 526.784 8.34082C526.804 8.21387 526.838 8.10156 526.887 8.00391C526.945 7.90625 527.019 7.82812 527.106 7.76953C527.204 7.71094 527.326 7.68164 527.473 7.68164C527.58 7.68164 527.668 7.71582 527.736 7.78418C527.805 7.84277 527.858 7.9209 527.897 8.01855C527.946 8.11621 527.976 8.22852 527.985 8.35547C528.005 8.47266 528.015 8.58984 528.015 8.70703V15.123H540.979V8.70703C540.979 8.58008 540.983 8.45801 540.993 8.34082C541.003 8.21387 541.027 8.10156 541.066 8.00391C541.115 7.90625 541.179 7.82812 541.257 7.76953C541.335 7.71094 541.447 7.68164 541.594 7.68164C541.74 7.68164 541.853 7.71094 541.931 7.76953C542.019 7.82812 542.082 7.90625 542.121 8.00391C542.17 8.10156 542.199 8.21387 542.209 8.34082C542.219 8.45801 542.224 8.58008 542.224 8.70703V22.9746C542.224 23.1016 542.219 23.2285 542.209 23.3555C542.199 23.4727 542.17 23.5801 542.121 23.6777C542.082 23.7754 542.023 23.8535 541.945 23.9121C541.867 23.9707 541.755 24 541.608 24C541.462 24 541.345 23.9707 541.257 23.9121C541.179 23.8535 541.115 23.7754 541.066 23.6777C541.027 23.5801 541.003 23.4727 540.993 23.3555C540.983 23.2285 540.979 23.1016 540.979 22.9746V16.0312H528.015V22.9746C528.015 23.0918 528.005 23.2139 527.985 23.3408C527.966 23.458 527.932 23.5654 527.883 23.6631C527.844 23.7607 527.785 23.8438 527.707 23.9121C527.639 23.9707 527.551 24 527.443 24C527.297 24 527.175 23.9707 527.077 23.9121C526.989 23.8535 526.921 23.7754 526.872 23.6777C526.833 23.5801 526.804 23.4727 526.784 23.3555C526.774 23.2285 526.77 23.1016 526.77 22.9746V8.70703ZM568.679 8.42871C568.835 8.14551 568.957 7.9502 569.045 7.84277C569.133 7.73535 569.265 7.68164 569.44 7.68164C569.577 7.68164 569.694 7.73535 569.792 7.84277C569.899 7.94043 570.036 8.13574 570.202 8.42871L578.288 23.0186C578.396 23.2139 578.449 23.4043 578.449 23.5898C578.449 23.7656 578.4 23.9023 578.303 24C578.205 24.0977 578.088 24.1465 577.951 24.1465C577.814 24.1465 577.678 24.0977 577.541 24C577.414 23.9121 577.282 23.7461 577.146 23.502L574.655 18.9902H564.226L561.706 23.5605C561.599 23.7656 561.472 23.9121 561.325 24C561.188 24.0977 561.052 24.1465 560.915 24.1465C560.749 24.1465 560.627 24.0879 560.549 23.9707C560.471 23.8535 560.432 23.6973 560.432 23.502C560.432 23.4238 560.446 23.3457 560.476 23.2676C560.515 23.1895 560.559 23.1016 560.607 23.0039L568.679 8.42871ZM574.23 18.126L569.44 9.38086L564.65 18.126H574.23ZM615.246 19.4443C615.246 20.0693 615.134 20.626 614.909 21.1143C614.685 21.5928 614.372 22.0127 613.972 22.374C613.571 22.7256 613.093 23.0283 612.536 23.2822C611.989 23.5264 611.394 23.7266 610.749 23.8828C610.104 24.0293 609.416 24.1318 608.684 24.1904C607.961 24.2588 607.229 24.293 606.486 24.293C605.441 24.293 604.401 24.2393 603.366 24.1318C602.331 24.0244 601.364 23.8926 600.466 23.7363C599.567 23.5703 598.771 23.3945 598.078 23.209C597.395 23.0234 596.877 22.8477 596.525 22.6816C596.389 22.6133 596.286 22.5303 596.218 22.4326C596.159 22.3252 596.13 22.2178 596.13 22.1104C596.13 21.9932 596.159 21.8955 596.218 21.8174C596.286 21.7295 596.384 21.6855 596.511 21.6855C596.569 21.6855 596.638 21.7002 596.716 21.7295C597.097 21.8857 597.644 22.0566 598.356 22.2422C599.069 22.4277 599.875 22.6035 600.773 22.7695C601.682 22.9258 602.644 23.0576 603.659 23.165C604.685 23.2725 605.7 23.3262 606.706 23.3262C607.683 23.3262 608.61 23.2627 609.489 23.1357C610.368 23.0088 611.14 22.7939 611.804 22.4912C612.478 22.1885 613.01 21.7881 613.4 21.29C613.801 20.792 614.001 20.1768 614.001 19.4443C614.001 18.8291 613.83 18.3262 613.488 17.9355C613.156 17.5352 612.702 17.2178 612.126 16.9834C611.55 16.7393 610.876 16.5586 610.104 16.4414C609.333 16.3145 608.513 16.2217 607.644 16.1631C606.784 16.0947 605.896 16.0459 604.978 16.0166C604.06 15.9775 603.166 15.9189 602.297 15.8408C601.438 15.7627 600.622 15.6504 599.851 15.5039C599.079 15.3574 598.405 15.1426 597.829 14.8594C597.253 14.5762 596.794 14.21 596.452 13.7607C596.12 13.3115 595.954 12.7451 595.954 12.0615C595.954 11.4365 596.071 10.8848 596.306 10.4062C596.54 9.92773 596.862 9.51758 597.272 9.17578C597.683 8.82422 598.166 8.53613 598.723 8.31152C599.289 8.07715 599.899 7.8916 600.554 7.75488C601.218 7.61816 601.911 7.52051 602.634 7.46191C603.366 7.40332 604.099 7.37402 604.831 7.37402C605.739 7.37402 606.633 7.41797 607.512 7.50586C608.391 7.58398 609.216 7.69629 609.987 7.84277C610.759 7.97949 611.452 8.13574 612.067 8.31152C612.683 8.47754 613.176 8.64844 613.547 8.82422C613.625 8.86328 613.684 8.92188 613.723 9C613.762 9.06836 613.781 9.1416 613.781 9.21973C613.781 9.35645 613.732 9.4834 613.635 9.60059C613.547 9.71777 613.42 9.77637 613.254 9.77637C613.156 9.77637 613.073 9.75684 613.005 9.71777C612.487 9.50293 611.911 9.3125 611.276 9.14648C610.651 8.9707 609.987 8.82422 609.284 8.70703C608.581 8.58984 607.854 8.50195 607.102 8.44336C606.359 8.375 605.622 8.34082 604.89 8.34082C603.874 8.34082 602.902 8.39941 601.975 8.5166C601.047 8.63379 600.227 8.83398 599.514 9.11719C598.811 9.39062 598.249 9.76172 597.829 10.2305C597.409 10.6895 597.199 11.2705 597.199 11.9736C597.199 12.5107 597.365 12.9502 597.697 13.292C598.039 13.624 598.498 13.8926 599.074 14.0977C599.65 14.3027 600.324 14.459 601.096 14.5664C601.867 14.6641 602.683 14.7422 603.542 14.8008C604.411 14.8594 605.305 14.9131 606.223 14.9619C607.141 15.001 608.029 15.0742 608.889 15.1816C609.758 15.2793 610.578 15.4209 611.35 15.6064C612.121 15.7822 612.795 16.0312 613.371 16.3535C613.947 16.6758 614.401 17.0908 614.733 17.5986C615.075 18.0967 615.246 18.7119 615.246 19.4443ZM649.289 23.4873C649.289 23.6338 649.265 23.7412 649.216 23.8096C649.167 23.8779 649.099 23.9268 649.011 23.9561C648.933 23.9854 648.835 24 648.718 24C648.601 24 648.469 24 648.322 24H634.641C634.543 24 634.47 23.9951 634.421 23.9854C634.372 23.9756 634.333 23.9512 634.304 23.9121C634.284 23.873 634.27 23.8242 634.26 23.7656C634.26 23.6973 634.26 23.6045 634.26 23.4873V8.37012C634.26 8.22363 634.26 8.10645 634.26 8.01855C634.27 7.93066 634.289 7.8623 634.318 7.81348C634.348 7.76465 634.396 7.73047 634.465 7.71094C634.543 7.69141 634.655 7.68164 634.802 7.68164H648.176C648.322 7.68164 648.459 7.68164 648.586 7.68164C648.713 7.68164 648.825 7.69629 648.923 7.72559C649.03 7.75488 649.113 7.80371 649.172 7.87207C649.23 7.94043 649.26 8.04785 649.26 8.19434C649.26 8.31152 649.23 8.4043 649.172 8.47266C649.113 8.53125 649.03 8.5752 648.923 8.60449C648.825 8.63379 648.713 8.64844 648.586 8.64844C648.459 8.64844 648.322 8.64844 648.176 8.64844H635.505V15.0645H648.103C648.317 15.0645 648.498 15.0938 648.645 15.1523C648.791 15.2109 648.864 15.3379 648.864 15.5332C648.864 15.748 648.801 15.8896 648.674 15.958C648.557 16.0264 648.4 16.0605 648.205 16.0605H635.505V23.0332H648.205C648.352 23.0332 648.488 23.0332 648.615 23.0332C648.742 23.0332 648.854 23.0479 648.952 23.0771C649.06 23.1064 649.143 23.1553 649.201 23.2236C649.26 23.2822 649.289 23.3701 649.289 23.4873ZM711.032 15.8408C711.032 17.2666 710.817 18.5117 710.388 19.5762C709.968 20.6309 709.313 21.5098 708.425 22.2129C707.546 22.916 706.428 23.4434 705.07 23.7949C703.723 24.1367 702.121 24.3076 700.266 24.3076C698.41 24.3076 696.804 24.1367 695.446 23.7949C694.099 23.4434 692.985 22.916 692.106 22.2129C691.228 21.5098 690.573 20.6309 690.144 19.5762C689.724 18.5117 689.514 17.2666 689.514 15.8408C689.514 14.415 689.724 13.1748 690.144 12.1201C690.573 11.0557 691.228 10.1719 692.106 9.46875C692.985 8.76562 694.099 8.24316 695.446 7.90137C696.804 7.5498 698.41 7.37402 700.266 7.37402C702.121 7.37402 703.723 7.5498 705.07 7.90137C706.428 8.24316 707.546 8.76562 708.425 9.46875C709.313 10.1719 709.968 11.0557 710.388 12.1201C710.817 13.1748 711.032 14.415 711.032 15.8408ZM690.759 15.8408C690.759 17.208 690.954 18.3652 691.345 19.3125C691.735 20.2598 692.321 21.0361 693.103 21.6416C693.894 22.2373 694.885 22.6719 696.076 22.9453C697.268 23.209 698.664 23.3408 700.266 23.3408C701.867 23.3408 703.264 23.209 704.455 22.9453C705.646 22.6719 706.638 22.2373 707.429 21.6416C708.22 21.0361 708.811 20.2598 709.201 19.3125C709.592 18.3652 709.787 17.208 709.787 15.8408C709.787 14.4834 709.592 13.3311 709.201 12.3838C708.811 11.4268 708.22 10.6504 707.429 10.0547C706.638 9.44922 705.646 9.01465 704.455 8.75098C703.264 8.47754 701.867 8.34082 700.266 8.34082C698.664 8.34082 697.268 8.47754 696.076 8.75098C694.885 9.01465 693.894 9.44922 693.103 10.0547C692.321 10.6504 691.735 11.4268 691.345 12.3838C690.954 13.3311 690.759 14.4834 690.759 15.8408ZM731.452 22.9746C731.452 23.2578 731.408 23.502 731.32 23.707C731.242 23.9023 731.086 24 730.852 24C730.568 24 730.388 23.9023 730.31 23.707C730.241 23.502 730.207 23.2676 730.207 23.0039V8.22363C730.207 8.07715 730.207 7.96973 730.207 7.90137C730.217 7.82324 730.236 7.76953 730.266 7.74023C730.295 7.71094 730.344 7.69629 730.412 7.69629C730.49 7.68652 730.603 7.68164 730.749 7.68164H745.075C745.202 7.68164 745.319 7.68652 745.427 7.69629C745.544 7.69629 745.642 7.71582 745.72 7.75488C745.808 7.78418 745.876 7.83301 745.925 7.90137C745.974 7.96973 745.998 8.06738 745.998 8.19434C745.998 8.41895 745.915 8.55078 745.749 8.58984C745.583 8.62891 745.358 8.64844 745.075 8.64844H731.452V15.2988H742.98C743.264 15.2988 743.493 15.3184 743.669 15.3574C743.854 15.3965 743.947 15.5283 743.947 15.7529C743.947 15.8799 743.918 15.9775 743.859 16.0459C743.811 16.1143 743.742 16.168 743.654 16.207C743.566 16.2363 743.464 16.2559 743.347 16.2656C743.229 16.2656 743.107 16.2656 742.98 16.2656H731.452V22.9746ZM784.553 15.8408C784.553 14.3174 784.782 13.0234 785.241 11.959C785.71 10.8848 786.403 10.0107 787.321 9.33691C788.239 8.65332 789.382 8.15527 790.749 7.84277C792.126 7.53027 793.723 7.37402 795.539 7.37402C796.809 7.37402 798.039 7.49121 799.23 7.72559C800.422 7.9502 801.633 8.31641 802.863 8.82422C803.02 8.89258 803.132 8.98047 803.2 9.08789C803.269 9.18555 803.303 9.2832 803.303 9.38086C803.303 9.49805 803.259 9.60059 803.171 9.68848C803.083 9.77637 802.971 9.82031 802.834 9.82031C802.795 9.82031 802.702 9.7959 802.556 9.74707C801.433 9.27832 800.271 8.92676 799.069 8.69238C797.868 8.45801 796.691 8.34082 795.539 8.34082C793.801 8.34082 792.316 8.4873 791.086 8.78027C789.855 9.06348 788.845 9.5127 788.054 10.1279C787.272 10.7334 786.701 11.5098 786.34 12.457C785.979 13.3945 785.798 14.5225 785.798 15.8408C785.798 17.1592 785.979 18.292 786.34 19.2393C786.701 20.1768 787.272 20.9531 788.054 21.5684C788.845 22.1738 789.855 22.623 791.086 22.916C792.316 23.1992 793.801 23.3408 795.539 23.3408C796.691 23.3408 797.868 23.2236 799.069 22.9893C800.271 22.7549 801.433 22.4033 802.556 21.9346C802.634 21.8955 802.722 21.876 802.819 21.876C802.966 21.876 803.083 21.9199 803.171 22.0078C803.269 22.0957 803.317 22.1982 803.317 22.3154C803.317 22.4131 803.283 22.5107 803.215 22.6084C803.146 22.7061 803.029 22.7891 802.863 22.8574C801.623 23.3652 800.407 23.7363 799.216 23.9707C798.034 24.1953 796.809 24.3076 795.539 24.3076C793.723 24.3076 792.126 24.1514 790.749 23.8389C789.382 23.5264 788.239 23.0332 787.321 22.3594C786.403 21.6758 785.71 20.8018 785.241 19.7373C784.782 18.6631 784.553 17.3643 784.553 15.8408ZM821.906 8.70703C821.906 8.58008 821.911 8.45801 821.921 8.34082C821.94 8.21387 821.975 8.10156 822.023 8.00391C822.082 7.90625 822.155 7.82812 822.243 7.76953C822.341 7.71094 822.463 7.68164 822.609 7.68164C822.717 7.68164 822.805 7.71582 822.873 7.78418C822.941 7.84277 822.995 7.9209 823.034 8.01855C823.083 8.11621 823.112 8.22852 823.122 8.35547C823.142 8.47266 823.151 8.58984 823.151 8.70703V15.123H836.115V8.70703C836.115 8.58008 836.12 8.45801 836.13 8.34082C836.14 8.21387 836.164 8.10156 836.203 8.00391C836.252 7.90625 836.315 7.82812 836.394 7.76953C836.472 7.71094 836.584 7.68164 836.73 7.68164C836.877 7.68164 836.989 7.71094 837.067 7.76953C837.155 7.82812 837.219 7.90625 837.258 8.00391C837.307 8.10156 837.336 8.21387 837.346 8.34082C837.355 8.45801 837.36 8.58008 837.36 8.70703V22.9746C837.36 23.1016 837.355 23.2285 837.346 23.3555C837.336 23.4727 837.307 23.5801 837.258 23.6777C837.219 23.7754 837.16 23.8535 837.082 23.9121C837.004 23.9707 836.892 24 836.745 24C836.599 24 836.481 23.9707 836.394 23.9121C836.315 23.8535 836.252 23.7754 836.203 23.6777C836.164 23.5801 836.14 23.4727 836.13 23.3555C836.12 23.2285 836.115 23.1016 836.115 22.9746V16.0312H823.151V22.9746C823.151 23.0918 823.142 23.2139 823.122 23.3408C823.103 23.458 823.068 23.5654 823.02 23.6631C822.98 23.7607 822.922 23.8438 822.844 23.9121C822.775 23.9707 822.688 24 822.58 24C822.434 24 822.312 23.9707 822.214 23.9121C822.126 23.8535 822.058 23.7754 822.009 23.6777C821.97 23.5801 821.94 23.4727 821.921 23.3555C821.911 23.2285 821.906 23.1016 821.906 22.9746V8.70703ZM863.815 8.42871C863.972 8.14551 864.094 7.9502 864.182 7.84277C864.27 7.73535 864.401 7.68164 864.577 7.68164C864.714 7.68164 864.831 7.73535 864.929 7.84277C865.036 7.94043 865.173 8.13574 865.339 8.42871L873.425 23.0186C873.532 23.2139 873.586 23.4043 873.586 23.5898C873.586 23.7656 873.537 23.9023 873.439 24C873.342 24.0977 873.225 24.1465 873.088 24.1465C872.951 24.1465 872.814 24.0977 872.678 24C872.551 23.9121 872.419 23.7461 872.282 23.502L869.792 18.9902H859.362L856.843 23.5605C856.735 23.7656 856.608 23.9121 856.462 24C856.325 24.0977 856.188 24.1465 856.052 24.1465C855.886 24.1465 855.764 24.0879 855.686 23.9707C855.607 23.8535 855.568 23.6973 855.568 23.502C855.568 23.4238 855.583 23.3457 855.612 23.2676C855.651 23.1895 855.695 23.1016 855.744 23.0039L863.815 8.42871ZM869.367 18.126L864.577 9.38086L859.787 18.126H869.367ZM906.384 13.4971C906.384 14.3857 906.271 15.1377 906.047 15.7529C905.832 16.3584 905.529 16.8613 905.139 17.2617C904.748 17.6621 904.274 17.9746 903.718 18.1992C903.171 18.4141 902.565 18.5752 901.901 18.6826C901.237 18.79 900.524 18.8535 899.763 18.873C899.011 18.8926 898.234 18.9023 897.434 18.9023H893.068V22.8867C893.068 23.1699 893.029 23.4287 892.951 23.6631C892.883 23.8877 892.731 24 892.497 24C892.214 24 892.028 23.8926 891.94 23.6777C891.862 23.4531 891.823 23.1895 891.823 22.8867V8.22363C891.823 8.07715 891.833 7.96973 891.853 7.90137C891.882 7.82324 891.926 7.76953 891.984 7.74023C892.043 7.71094 892.116 7.69629 892.204 7.69629C892.302 7.68652 892.424 7.68164 892.57 7.68164H897.434C898.322 7.68164 899.157 7.70605 899.938 7.75488C900.729 7.80371 901.457 7.90625 902.121 8.0625C902.785 8.20898 903.381 8.41406 903.908 8.67773C904.436 8.94141 904.88 9.29297 905.241 9.73242C905.612 10.1621 905.896 10.6846 906.091 11.2998C906.286 11.915 906.384 12.6475 906.384 13.4971ZM905.139 13.4971C905.139 12.4814 904.982 11.6562 904.67 11.0215C904.367 10.3867 903.898 9.89355 903.264 9.54199C902.639 9.19043 901.843 8.95605 900.876 8.83887C899.909 8.71191 898.762 8.64844 897.434 8.64844H893.068V17.9941H897.434C898.762 17.9941 899.909 17.9551 900.876 17.877C901.853 17.7891 902.653 17.5938 903.278 17.291C903.913 16.9785 904.382 16.5244 904.685 15.9287C904.987 15.333 905.139 14.5225 905.139 13.4971ZM941.291 8.22363C941.291 8.41895 941.223 8.54102 941.086 8.58984C940.949 8.62891 940.773 8.64844 940.559 8.64844H932.37V22.916C932.37 23.0625 932.365 23.1992 932.355 23.3262C932.346 23.4531 932.316 23.5703 932.268 23.6777C932.229 23.7754 932.17 23.8535 932.092 23.9121C932.014 23.9707 931.901 24 931.755 24C931.501 24 931.33 23.8926 931.242 23.6777C931.164 23.4531 931.125 23.1992 931.125 22.916V8.64844H922.922C922.707 8.64844 922.521 8.62891 922.365 8.58984C922.219 8.54102 922.146 8.41895 922.146 8.22363C922.146 8.07715 922.18 7.96973 922.248 7.90137C922.316 7.82324 922.399 7.76953 922.497 7.74023C922.604 7.71094 922.722 7.69629 922.849 7.69629C922.985 7.68652 923.112 7.68164 923.229 7.68164H940.236C940.383 7.68164 940.52 7.68652 940.646 7.69629C940.773 7.69629 940.881 7.71094 940.969 7.74023C941.066 7.76953 941.145 7.82324 941.203 7.90137C941.262 7.96973 941.291 8.07715 941.291 8.22363ZM973.957 23.4873C973.957 23.6338 973.933 23.7412 973.884 23.8096C973.835 23.8779 973.767 23.9268 973.679 23.9561C973.601 23.9854 973.503 24 973.386 24C973.269 24 973.137 24 972.99 24H959.309C959.211 24 959.138 23.9951 959.089 23.9854C959.04 23.9756 959.001 23.9512 958.972 23.9121C958.952 23.873 958.938 23.8242 958.928 23.7656C958.928 23.6973 958.928 23.6045 958.928 23.4873V8.37012C958.928 8.22363 958.928 8.10645 958.928 8.01855C958.938 7.93066 958.957 7.8623 958.986 7.81348C959.016 7.76465 959.064 7.73047 959.133 7.71094C959.211 7.69141 959.323 7.68164 959.47 7.68164H972.844C972.99 7.68164 973.127 7.68164 973.254 7.68164C973.381 7.68164 973.493 7.69629 973.591 7.72559C973.698 7.75488 973.781 7.80371 973.84 7.87207C973.898 7.94043 973.928 8.04785 973.928 8.19434C973.928 8.31152 973.898 8.4043 973.84 8.47266C973.781 8.53125 973.698 8.5752 973.591 8.60449C973.493 8.63379 973.381 8.64844 973.254 8.64844C973.127 8.64844 972.99 8.64844 972.844 8.64844H960.173V15.0645H972.771C972.985 15.0645 973.166 15.0938 973.312 15.1523C973.459 15.2109 973.532 15.3379 973.532 15.5332C973.532 15.748 973.469 15.8896 973.342 15.958C973.225 16.0264 973.068 16.0605 972.873 16.0605H960.173V23.0332H972.873C973.02 23.0332 973.156 23.0332 973.283 23.0332C973.41 23.0332 973.522 23.0479 973.62 23.0771C973.728 23.1064 973.811 23.1553 973.869 23.2236C973.928 23.2822 973.957 23.3701 973.957 23.4873ZM1007.36 12.75C1007.36 13.3457 1007.27 13.8682 1007.09 14.3174C1006.92 14.7666 1006.68 15.1572 1006.37 15.4893C1006.08 15.8213 1005.73 16.0996 1005.32 16.3242C1004.92 16.5488 1004.49 16.7344 1004.03 16.8809C1003.57 17.0176 1003.09 17.1201 1002.59 17.1885C1002.11 17.2568 1001.63 17.3008 1001.16 17.3203L1006.55 22.9893C1006.64 23.0771 1006.7 23.1699 1006.73 23.2676C1006.76 23.3555 1006.79 23.4385 1006.8 23.5166C1006.8 23.6533 1006.75 23.7705 1006.65 23.8682C1006.56 23.9561 1006.45 24 1006.3 24C1006.19 24 1006.08 23.9756 1005.95 23.9268C1005.83 23.8779 1005.71 23.7852 1005.6 23.6484L999.724 17.3789H994.245V22.8867C994.245 23.0332 994.235 23.1748 994.216 23.3115C994.206 23.4385 994.182 23.5557 994.143 23.6631C994.104 23.7607 994.045 23.8438 993.967 23.9121C993.898 23.9707 993.806 24 993.688 24C993.405 24 993.22 23.8926 993.132 23.6777C993.044 23.4531 993 23.1895 993 22.8867V8.22363C993 8.07715 993 7.96973 993 7.90137C993.01 7.82324 993.029 7.76953 993.059 7.74023C993.088 7.71094 993.137 7.69629 993.205 7.69629C993.283 7.68652 993.396 7.68164 993.542 7.68164H997.79C998.698 7.68164 999.562 7.69141 1000.38 7.71094C1001.21 7.73047 1001.98 7.79395 1002.68 7.90137C1003.4 7.99902 1004.04 8.15527 1004.62 8.37012C1005.19 8.5752 1005.68 8.86816 1006.08 9.24902C1006.49 9.62012 1006.8 10.0889 1007.02 10.6553C1007.24 11.2217 1007.36 11.9199 1007.36 12.75ZM1006.11 12.75C1006.11 11.7832 1005.93 11.0264 1005.57 10.4795C1005.22 9.92285 1004.69 9.5127 1003.99 9.24902C1003.28 8.97559 1002.41 8.80957 1001.38 8.75098C1000.34 8.68262 999.147 8.64844 997.79 8.64844H994.245V16.4121H999.738C1000.59 16.4121 1001.4 16.373 1002.17 16.2949C1002.94 16.2168 1003.62 16.0508 1004.19 15.7969C1004.78 15.5332 1005.24 15.1621 1005.58 14.6836C1005.93 14.2051 1006.11 13.5605 1006.11 12.75ZM1025.99 15.7822C1025.99 15.499 1026.07 15.2695 1026.24 15.0938C1026.41 14.918 1026.64 14.8301 1026.93 14.8301C1027.19 14.8301 1027.41 14.918 1027.6 15.0938C1027.79 15.2695 1027.89 15.499 1027.89 15.7822C1027.89 16.0557 1027.79 16.2754 1027.6 16.4414C1027.41 16.6074 1027.19 16.6904 1026.93 16.6904C1026.64 16.6904 1026.41 16.6074 1026.24 16.4414C1026.07 16.2754 1025.99 16.0557 1025.99 15.7822ZM1025.99 21.0117C1025.99 20.7285 1026.07 20.499 1026.24 20.3232C1026.41 20.1475 1026.64 20.0596 1026.93 20.0596C1027.19 20.0596 1027.41 20.1475 1027.6 20.3232C1027.79 20.499 1027.89 20.7285 1027.89 21.0117C1027.89 21.2852 1027.79 21.5049 1027.6 21.6709C1027.41 21.8369 1027.19 21.9199 1026.93 21.9199C1026.64 21.9199 1026.41 21.8369 1026.24 21.6709C1026.07 21.5049 1025.99 21.2852 1025.99 21.0117Z" fill="white"/>
<path d="M248.1 137.2C242.567 137.2 237.467 136.333 232.8 134.6C228.2 132.8 224.167 130.267 220.7 127C217.3 123.733 214.633 119.9 212.7 115.5C210.833 111.1 209.9 106.267 209.9 101C209.9 95.7333 210.833 90.9 212.7 86.5C214.633 82.1 217.333 78.2667 220.8 75C224.267 71.7333 228.333 69.2333 233 67.5C237.667 65.7 242.8 64.8 248.4 64.8C254.6 64.8 260.167 65.8333 265.1 67.9C270.1 69.9667 274.3 72.9667 277.7 76.9L267.3 86.5C264.767 83.8333 262 81.8667 259 80.6C256 79.2667 252.733 78.6 249.2 78.6C245.8 78.6 242.7 79.1333 239.9 80.2C237.1 81.2667 234.667 82.8 232.6 84.8C230.6 86.8 229.033 89.1667 227.9 91.9C226.833 94.6333 226.3 97.6667 226.3 101C226.3 104.267 226.833 107.267 227.9 110C229.033 112.733 230.6 115.133 232.6 117.2C234.667 119.2 237.067 120.733 239.8 121.8C242.6 122.867 245.667 123.4 249 123.4C252.2 123.4 255.3 122.9 258.3 121.9C261.367 120.833 264.333 119.067 267.2 116.6L276.4 128.3C272.6 131.167 268.167 133.367 263.1 134.9C258.1 136.433 253.1 137.2 248.1 137.2ZM261.6 126.2V99.9H276.4V128.3L261.6 126.2ZM301.448 136V66H331.748C338.015 66 343.415 67.0333 347.948 69.1C352.482 71.1 355.982 74 358.448 77.8C360.915 81.6 362.148 86.1333 362.148 91.4C362.148 96.6 360.915 101.1 358.448 104.9C355.982 108.633 352.482 111.5 347.948 113.5C343.415 115.5 338.015 116.5 331.748 116.5H310.448L317.648 109.4V136H301.448ZM345.948 136L328.448 110.6H345.748L363.448 136H345.948ZM317.648 111.2L310.448 103.6H330.848C335.848 103.6 339.582 102.533 342.048 100.4C344.515 98.2 345.748 95.2 345.748 91.4C345.748 87.5333 344.515 84.5333 342.048 82.4C339.582 80.2667 335.848 79.2 330.848 79.2H310.448L317.648 71.5V111.2ZM375.784 136L406.984 66H422.984L454.284 136H437.284L411.684 74.2H418.084L392.384 136H375.784ZM391.384 121L395.684 108.7H431.684L436.084 121H391.384ZM471.546 136V66H503.346C510.946 66 517.646 67.4667 523.446 70.4C529.246 73.2667 533.779 77.3 537.046 82.5C540.313 87.7 541.946 93.8667 541.946 101C541.946 108.067 540.313 114.233 537.046 119.5C533.779 124.7 529.246 128.767 523.446 131.7C517.646 134.567 510.946 136 503.346 136H471.546ZM487.746 122.7H502.546C507.213 122.7 511.246 121.833 514.646 120.1C518.113 118.3 520.779 115.767 522.646 112.5C524.579 109.233 525.546 105.4 525.546 101C525.546 96.5333 524.579 92.7 522.646 89.5C520.779 86.2333 518.113 83.7333 514.646 82C511.246 80.2 507.213 79.3 502.546 79.3H487.746V122.7ZM595.263 137.2C585.33 137.2 577.563 134.433 571.963 128.9C566.363 123.367 563.563 115.467 563.563 105.2V66H579.763V104.6C579.763 111.267 581.13 116.067 583.863 119C586.597 121.933 590.43 123.4 595.363 123.4C600.297 123.4 604.13 121.933 606.863 119C609.597 116.067 610.963 111.267 610.963 104.6V66H626.963V105.2C626.963 115.467 624.163 123.367 618.563 128.9C612.963 134.433 605.197 137.2 595.263 137.2ZM642.307 136L673.507 66H689.507L720.807 136H703.807L678.207 74.2H684.607L658.907 136H642.307ZM657.907 121L662.207 108.7H698.207L702.607 121H657.907ZM749.054 136V79.2H726.654V66H787.654V79.2H765.254V136H749.054ZM806.37 136V66H822.57V136H806.37ZM883.183 137.2C877.649 137.2 872.516 136.3 867.783 134.5C863.116 132.7 859.049 130.167 855.583 126.9C852.183 123.633 849.516 119.8 847.583 115.4C845.716 111 844.783 106.2 844.783 101C844.783 95.8 845.716 91 847.583 86.6C849.516 82.2 852.216 78.3667 855.683 75.1C859.149 71.8333 863.216 69.3 867.883 67.5C872.549 65.7 877.616 64.8 883.083 64.8C888.616 64.8 893.683 65.7 898.283 67.5C902.949 69.3 906.983 71.8333 910.383 75.1C913.849 78.3667 916.549 82.2 918.483 86.6C920.416 90.9333 921.383 95.7333 921.383 101C921.383 106.2 920.416 111.033 918.483 115.5C916.549 119.9 913.849 123.733 910.383 127C906.983 130.2 902.949 132.7 898.283 134.5C893.683 136.3 888.649 137.2 883.183 137.2ZM883.083 123.4C886.216 123.4 889.083 122.867 891.683 121.8C894.349 120.733 896.683 119.2 898.683 117.2C900.683 115.2 902.216 112.833 903.283 110.1C904.416 107.367 904.983 104.333 904.983 101C904.983 97.6667 904.416 94.6333 903.283 91.9C902.216 89.1667 900.683 86.8 898.683 84.8C896.749 82.8 894.449 81.2667 891.783 80.2C889.116 79.1333 886.216 78.6 883.083 78.6C879.949 78.6 877.049 79.1333 874.383 80.2C871.783 81.2667 869.483 82.8 867.483 84.8C865.483 86.8 863.916 89.1667 862.783 91.9C861.716 94.6333 861.183 97.6667 861.183 101C861.183 104.267 861.716 107.3 862.783 110.1C863.916 112.833 865.449 115.2 867.383 117.2C869.383 119.2 871.716 120.733 874.383 121.8C877.049 122.867 879.949 123.4 883.083 123.4ZM943.558 136V66H956.958L998.258 116.4H991.758V66H1007.76V136H994.458L953.058 85.6H959.558V136H943.558Z" fill="white"/>
</svg>
